<svg width="28" height="28" viewBox="0 0 28 28" fill="none" xmlns="http://www.w3.org/2000/svg">
<rect width="28" height="28" fill="white"/>
<path d="M19.3636 14.4584C19.3733 13.7046 19.5735 12.9655 19.9456 12.3099C20.3177 11.6543 20.8496 11.1034 21.4918 10.7086C21.0839 10.126 20.5457 9.64646 19.92 9.3082C19.2943 8.96994 18.5983 8.78223 17.8874 8.75999C16.3708 8.6008 14.9006 9.66746 14.1278 9.66746C13.34 9.66746 12.1502 8.77579 10.8689 8.80215C10.0402 8.82893 9.23247 9.06992 8.52455 9.50166C7.81662 9.9334 7.2326 10.5412 6.82939 11.2657C5.08281 14.2897 6.3856 18.734 8.05871 21.1783C8.8958 22.3753 9.87411 23.7123 11.1542 23.6649C12.4069 23.6129 12.8748 22.8661 14.3868 22.8661C15.8849 22.8661 16.3238 23.6649 17.6299 23.6347C18.9741 23.6129 19.821 22.4325 20.6287 21.2242C21.2302 20.3713 21.693 19.4288 22 18.4313C21.2191 18.101 20.5526 17.5482 20.0838 16.8417C19.615 16.1352 19.3645 15.3063 19.3636 14.4584Z" fill="black"/>
<path d="M16.8966 7.15242C17.6296 6.27261 17.9906 5.14175 17.9032 4C16.7835 4.1176 15.7492 4.65275 15.0064 5.49881C14.6432 5.91213 14.3651 6.39298 14.1878 6.91387C14.0106 7.43476 13.9378 7.98547 13.9735 8.53452C14.5336 8.54028 15.0876 8.41889 15.5939 8.17949C16.1003 7.94009 16.5457 7.58892 16.8966 7.15242Z" fill="black"/>
</svg>
