<svg width="20" height="20" viewBox="0 0 20 20" fill="none" xmlns="http://www.w3.org/2000/svg">
<path d="M4.66347 16.9742H11.6007C10.5625 16.2862 9.90492 15.1532 9.82247 13.9104C9.74002 12.6676 10.2421 11.4578 11.1802 10.6387C12.1182 9.81947 13.3849 9.48505 14.605 9.73414L14.279 7.11899C14.2287 6.71673 14.0333 6.34665 13.7294 6.07828C13.4255 5.80992 13.0341 5.66177 12.6286 5.66165H11.8068V7.65797C11.8068 7.84178 11.6579 7.99073 11.4742 7.99073C11.2904 7.99073 11.1414 7.84178 11.1414 7.65797V5.66165H7.1488V7.65797C7.1488 7.84178 6.99986 7.99073 6.81604 7.99073C6.63234 7.99073 6.4834 7.84178 6.4834 7.65797V5.66165H5.6616C5.25609 5.66176 4.86476 5.80993 4.56083 6.07828C4.25691 6.34664 4.06153 6.71673 4.01128 7.11899L3.01312 15.1043C2.95329 15.5778 3.0999 16.0542 3.41583 16.412C3.73165 16.7699 4.18607 16.9747 4.66342 16.9741L4.66347 16.9742Z" fill="#F1F1F1"/>
<path d="M9.14519 3.6654C9.67467 3.6654 10.1825 3.87573 10.5568 4.25015C10.9312 4.62457 11.1415 5.13235 11.1415 5.66172H11.8069C11.8069 4.71079 11.2996 3.83206 10.4761 3.3566C9.65251 2.88113 8.63787 2.88113 7.81428 3.3566C6.9908 3.83206 6.48347 4.71079 6.48347 5.66172H7.14888C7.14888 5.13235 7.3592 4.62457 7.73363 4.25015C8.10793 3.87573 8.61571 3.6654 9.14519 3.6654Z" fill="#F1F1F1"/>
<path d="M13.8032 10.3199C12.9208 10.3199 12.0745 10.6704 11.4505 11.2944C10.8266 11.9183 10.4761 12.7647 10.4761 13.6471C10.4761 14.5295 10.8266 15.3758 11.4505 15.9998C12.0745 16.6237 12.9208 16.9743 13.8032 16.9743C14.6856 16.9743 15.5319 16.6237 16.1559 15.9998C16.7799 15.3758 17.1304 14.5295 17.1304 13.6471C17.1294 12.765 16.7786 11.9192 16.1549 11.2955C15.531 10.6718 14.6854 10.3208 13.8032 10.3199ZM14.8014 13.9798H14.136V14.6452C14.136 14.829 13.987 14.9779 13.8032 14.9779C13.6195 14.9779 13.4706 14.829 13.4706 14.6452V13.9798H12.805C12.6213 13.9798 12.4724 13.8308 12.4724 13.647C12.4724 13.4633 12.6214 13.3144 12.805 13.3144H13.4705L13.4706 12.6488C13.4706 12.4651 13.6195 12.3162 13.8032 12.3162C13.987 12.3162 14.136 12.4652 14.136 12.6488V13.3142H14.8014V13.3144C14.9852 13.3144 15.1341 13.4633 15.1341 13.647C15.1341 13.8308 14.9852 13.9798 14.8014 13.9798L14.8014 13.9798Z" fill="#F1F1F1"/>
</svg>
