<svg width="20" height="20" viewBox="0 0 20 20" fill="none" xmlns="http://www.w3.org/2000/svg">
<path d="M3.33326 18.7493H12.0211C10.721 17.8877 9.8974 16.4688 9.79414 14.9124C9.69089 13.356 10.3197 11.8408 11.4945 10.8151C12.6693 9.78909 14.2555 9.37029 15.7836 9.68223L15.3752 6.40714C15.3123 5.90337 15.0676 5.43989 14.687 5.1038C14.3064 4.76772 13.8163 4.58217 13.3085 4.58203H12.2793V7.08213C12.2793 7.31232 12.0927 7.49886 11.8627 7.49886C11.6325 7.49886 11.446 7.31232 11.446 7.08213V4.58203H6.44577V7.08213C6.44577 7.31232 6.25924 7.49886 6.02904 7.49886C5.79898 7.49886 5.61245 7.31232 5.61245 7.08213V4.58203H4.58327C4.07543 4.58217 3.58534 4.76772 3.20472 5.1038C2.82409 5.43988 2.57941 5.90337 2.51648 6.40714L1.26643 16.4075C1.19151 17.0006 1.37511 17.5972 1.77077 18.0453C2.16628 18.4935 2.73538 18.7499 3.33319 18.7492L3.33326 18.7493Z" fill="#212121"/>
<path d="M8.94572 2.08332C9.60881 2.08332 10.2447 2.34672 10.7135 2.81563C11.1824 3.28454 11.4458 3.92046 11.4458 4.58341H12.2791C12.2791 3.39251 11.6438 2.29204 10.6125 1.69659C9.58106 1.10114 8.31037 1.10114 7.27894 1.69659C6.24765 2.29204 5.6123 3.39251 5.6123 4.58341H6.44562C6.44562 3.92046 6.70903 3.28454 7.17794 2.81563C7.6467 2.34672 8.28262 2.08332 8.94572 2.08332Z" fill="#212121"/>
<path d="M14.7795 10.416C13.6744 10.416 12.6145 10.8549 11.8331 11.6363C11.0517 12.4178 10.6128 13.4777 10.6128 14.5827C10.6128 15.6878 11.0517 16.7477 11.8331 17.5291C12.6145 18.3106 13.6744 18.7496 14.7795 18.7496C15.8846 18.7496 16.9445 18.3106 17.7259 17.5291C18.5073 16.7477 18.9464 15.6878 18.9464 14.5827C18.9451 13.4781 18.5058 12.4189 17.7247 11.6377C16.9434 10.8566 15.8843 10.4171 14.7795 10.416ZM16.0296 14.9994H15.1963V15.8327C15.1963 16.0629 15.0097 16.2495 14.7795 16.2495C14.5495 16.2495 14.3629 16.0629 14.3629 15.8327V14.9994H13.5295C13.2994 14.9994 13.1129 14.8129 13.1129 14.5827C13.1129 14.3526 13.2994 14.1661 13.5295 14.1661H14.3628L14.3629 13.3326C14.3629 13.1026 14.5495 12.916 14.7795 12.916C15.0097 12.916 15.1962 13.1026 15.1962 13.3326V14.1659H16.0296V14.1661C16.2598 14.1661 16.4463 14.3526 16.4463 14.5827C16.4463 14.8129 16.2598 14.9994 16.0296 14.9994L16.0296 14.9994Z" fill="#212121"/>
</svg>
