<svg width="16" height="16" viewBox="0 0 16 16" fill="none" xmlns="http://www.w3.org/2000/svg">
<path d="M15.9062 5.78125L14.3125 1.03125C14.125 0.4375 13.5625 0 12.9062 0H3.0625C2.40625 0 1.84375 0.4375 1.65625 1.03125L0.0625 5.78125C0 5.9375 0 6.09375 0 6.25V14.5C0 15.3438 0.65625 16 1.5 16H14.5C15.3125 16 16 15.3438 16 14.5V6.25C16 6.09375 15.9688 5.9375 15.9062 5.78125ZM14.4062 6H8.75V1.5H12.9062L14.4062 6ZM3.0625 1.5H7.25V6H1.5625L3.0625 1.5ZM1.5 14.5V7.5H14.5V14.5H1.5Z" fill="#212121"/>
</svg>
