<svg width="24" height="24" viewBox="0 0 24 24" fill="none" xmlns="http://www.w3.org/2000/svg">
<path d="M19.9062 9.78125L18.3125 5.03125C18.125 4.4375 17.5625 4 16.9062 4H7.0625C6.40625 4 5.84375 4.4375 5.65625 5.03125L4.0625 9.78125C4 9.9375 4 10.0938 4 10.25V18.5C4 19.3438 4.65625 20 5.5 20H18.5C19.3125 20 20 19.3438 20 18.5V10.25C20 10.0938 19.9688 9.9375 19.9062 9.78125ZM18.4062 10H12.75V5.5H16.9062L18.4062 10ZM7.0625 5.5H11.25V10H5.5625L7.0625 5.5ZM5.5 18.5V11.5H18.5V18.5H5.5Z" fill="#212121"/>
</svg>
