<svg width="246" height="76" viewBox="0 0 246 76" fill="none" xmlns="http://www.w3.org/2000/svg">
<rect width="50" height="50" transform="translate(98)" fill="white"/>
<path d="M109.659 42.4356H127.002C124.406 40.7156 122.762 37.8832 122.556 34.7762C122.35 31.6692 123.605 28.6446 125.951 26.597C128.296 24.5488 131.462 23.7128 134.513 24.3355L133.697 17.7976C133.572 16.792 133.083 15.8668 132.324 15.1959C131.564 14.525 130.585 14.1546 129.572 14.1543H127.517V19.1451C127.517 19.6046 127.145 19.977 126.685 19.977C126.226 19.977 125.854 19.6046 125.854 19.1451V14.1543H115.872V19.1451C115.872 19.6046 115.5 19.977 115.04 19.977C114.581 19.977 114.209 19.6046 114.209 19.1451V14.1543H112.154C111.14 14.1546 110.162 14.525 109.402 15.1959C108.642 15.8668 108.154 16.792 108.028 17.7976L105.533 37.7608C105.383 38.9447 105.75 40.1356 106.54 41.0301C107.329 41.925 108.465 42.4368 109.659 42.4355L109.659 42.4356Z" fill="#212121"/>
<path d="M120.863 9.1635C122.187 9.1635 123.456 9.68932 124.392 10.6254C125.328 11.5614 125.854 12.8309 125.854 14.1543H127.517C127.517 11.777 126.249 9.58016 124.19 8.3915C122.131 7.20283 119.595 7.20283 117.536 8.3915C115.477 9.58016 114.209 11.777 114.209 14.1543H115.872C115.872 12.8309 116.398 11.5614 117.334 10.6254C118.27 9.68932 119.539 9.1635 120.863 9.1635Z" fill="#212121"/>
<path d="M132.508 25.7998C130.302 25.7998 128.186 26.676 126.626 28.2359C125.066 29.7958 124.19 31.9116 124.19 34.1176C124.19 36.3236 125.066 38.4394 126.626 39.9993C128.186 41.5592 130.302 42.4357 132.508 42.4357C134.714 42.4357 136.83 41.5592 138.39 39.9993C139.95 38.4394 140.826 36.3236 140.826 34.1176C140.824 31.9124 139.947 29.798 138.387 28.2387C136.828 26.6793 134.714 25.802 132.508 25.7998ZM135.003 34.9494H133.34V36.6129C133.34 37.0724 132.968 37.4447 132.508 37.4447C132.049 37.4447 131.676 37.0724 131.676 36.6129V34.9494H130.013C129.553 34.9494 129.181 34.577 129.181 34.1175C129.181 33.6582 129.553 33.2858 130.013 33.2858H131.676L131.676 31.6221C131.676 31.1628 132.049 30.7905 132.508 30.7905C132.968 30.7905 133.34 31.1628 133.34 31.6221V33.2856H135.003V33.2858C135.463 33.2858 135.835 33.6582 135.835 34.1175C135.835 34.577 135.463 34.9493 135.003 34.9493L135.003 34.9494Z" fill="#212121"/>
<path d="M14.899 72V61.8182H18.3393C19.1381 61.8182 19.791 61.9624 20.2981 62.2507C20.8085 62.5357 21.1864 62.9219 21.4316 63.4091C21.6769 63.8963 21.7995 64.4399 21.7995 65.0398C21.7995 65.6397 21.6769 66.1849 21.4316 66.6754C21.1897 67.166 20.8152 67.5571 20.3081 67.8487C19.801 68.1371 19.1513 68.2812 18.3592 68.2812H15.8933V67.1875H18.3194C18.8663 67.1875 19.3055 67.093 19.6369 66.9041C19.9683 66.7152 20.2086 66.46 20.3578 66.1385C20.5102 65.8137 20.5865 65.4474 20.5865 65.0398C20.5865 64.6321 20.5102 64.2675 20.3578 63.946C20.2086 63.6245 19.9667 63.3726 19.6319 63.1903C19.2972 63.0047 18.853 62.9119 18.2995 62.9119H16.1319V72H14.899ZM23.6266 72V64.3636H24.7601V65.517H24.8397C24.9789 65.1392 25.2308 64.8326 25.5953 64.5973C25.9599 64.362 26.3709 64.2443 26.8283 64.2443C26.9145 64.2443 27.0222 64.246 27.1515 64.2493C27.2807 64.2526 27.3785 64.2576 27.4448 64.2642V65.4574C27.405 65.4474 27.3139 65.4325 27.1713 65.4126C27.0321 65.3894 26.8846 65.3778 26.7289 65.3778C26.3577 65.3778 26.0262 65.4557 25.7346 65.6115C25.4462 65.764 25.2175 65.9761 25.0485 66.2479C24.8828 66.5163 24.7999 66.8229 24.7999 67.1676V72H23.6266ZM31.7054 72.1591C31.016 72.1591 30.4112 71.995 29.8908 71.6669C29.3738 71.3388 28.9694 70.8797 28.6777 70.2898C28.3894 69.6998 28.2452 69.0104 28.2452 68.2216C28.2452 67.4261 28.3894 66.7318 28.6777 66.1385C28.9694 65.5452 29.3738 65.0845 29.8908 64.7564C30.4112 64.4283 31.016 64.2642 31.7054 64.2642C32.3948 64.2642 32.998 64.4283 33.5151 64.7564C34.0355 65.0845 34.4398 65.5452 34.7282 66.1385C35.0198 66.7318 35.1657 67.4261 35.1657 68.2216C35.1657 69.0104 35.0198 69.6998 34.7282 70.2898C34.4398 70.8797 34.0355 71.3388 33.5151 71.6669C32.998 71.995 32.3948 72.1591 31.7054 72.1591ZM31.7054 71.1051C32.2291 71.1051 32.66 70.9709 32.998 70.7024C33.3361 70.4339 33.5864 70.081 33.7488 69.6435C33.9112 69.206 33.9924 68.732 33.9924 68.2216C33.9924 67.7112 33.9112 67.2356 33.7488 66.7947C33.5864 66.3539 33.3361 65.9976 32.998 65.7259C32.66 65.4541 32.2291 65.3182 31.7054 65.3182C31.1818 65.3182 30.7509 65.4541 30.4128 65.7259C30.0748 65.9976 29.8245 66.3539 29.6621 66.7947C29.4997 67.2356 29.4185 67.7112 29.4185 68.2216C29.4185 68.732 29.4997 69.206 29.6621 69.6435C29.8245 70.081 30.0748 70.4339 30.4128 70.7024C30.7509 70.9709 31.1818 71.1051 31.7054 71.1051ZM39.8402 72.1591C39.2038 72.1591 38.642 71.9983 38.1548 71.6768C37.6676 71.352 37.2865 70.8946 37.0114 70.3047C36.7363 69.7114 36.5987 69.0104 36.5987 68.2017C36.5987 67.3996 36.7363 66.7036 37.0114 66.1136C37.2865 65.5237 37.6693 65.0679 38.1598 64.7464C38.6503 64.425 39.2171 64.2642 39.8601 64.2642C40.3572 64.2642 40.75 64.3471 41.0384 64.5128C41.33 64.6752 41.5521 64.8608 41.7045 65.0696C41.8603 65.2751 41.9813 65.4441 42.0675 65.5767H42.1669V61.8182H43.3402V72H42.2067V70.8267H42.0675C41.9813 70.9659 41.8587 71.1416 41.6996 71.3537C41.5405 71.5625 41.3134 71.7498 41.0185 71.9155C40.7235 72.0779 40.3307 72.1591 39.8402 72.1591ZM39.9993 71.1051C40.4699 71.1051 40.8677 70.9825 41.1925 70.7372C41.5173 70.4886 41.7642 70.1456 41.9332 69.7081C42.1023 69.2673 42.1868 68.7585 42.1868 68.1818C42.1868 67.6117 42.1039 67.1129 41.9382 66.6854C41.7725 66.2545 41.5272 65.9197 41.2024 65.6811C40.8776 65.4392 40.4766 65.3182 39.9993 65.3182C39.5021 65.3182 39.0878 65.4458 38.7564 65.701C38.4283 65.9529 38.1813 66.2959 38.0156 66.7301C37.8532 67.161 37.772 67.6449 37.772 68.1818C37.772 68.7254 37.8549 69.2192 38.0206 69.6634C38.1896 70.1042 38.4382 70.4555 38.7663 70.7173C39.0978 70.9759 39.5088 71.1051 39.9993 71.1051ZM50.4645 68.8778V64.3636H51.6378V72H50.4645V70.7074H50.3849C50.206 71.0952 49.9276 71.425 49.5497 71.6967C49.1719 71.9652 48.6946 72.0994 48.1179 72.0994C47.6406 72.0994 47.2164 71.995 46.8452 71.7862C46.474 71.5741 46.1823 71.2559 45.9702 70.8317C45.758 70.4041 45.652 69.8655 45.652 69.2159V64.3636H46.8253V69.1364C46.8253 69.6932 46.9811 70.1373 47.2926 70.4688C47.6075 70.8002 48.0085 70.9659 48.4957 70.9659C48.7874 70.9659 49.084 70.8913 49.3857 70.7422C49.6906 70.593 49.9458 70.3643 50.1513 70.0561C50.3601 69.7479 50.4645 69.3551 50.4645 68.8778ZM54.8805 69.2159L54.8606 67.7642H55.0993L58.4402 64.3636H59.8919L56.3322 67.9631H56.2328L54.8805 69.2159ZM53.7868 72V61.8182H54.96V72H53.7868ZM58.639 72L55.6561 68.2216L56.4913 67.4062L60.1305 72H58.639ZM68.6406 72H65.4986V61.8182H68.7798C69.7675 61.8182 70.6127 62.022 71.3153 62.4297C72.018 62.834 72.5566 63.4157 72.9311 64.1747C73.3056 64.9304 73.4929 65.8352 73.4929 66.8892C73.4929 67.9498 73.304 68.8629 72.9261 69.6286C72.5483 70.3909 71.9981 70.9775 71.2756 71.3885C70.553 71.7962 69.6747 72 68.6406 72ZM66.7315 70.9062H68.5611C69.4029 70.9062 70.1006 70.7438 70.6541 70.419C71.2076 70.0942 71.6203 69.6319 71.892 69.032C72.1638 68.4321 72.2997 67.7178 72.2997 66.8892C72.2997 66.0672 72.1655 65.3596 71.897 64.7663C71.6286 64.1697 71.2275 63.7124 70.6939 63.3942C70.1603 63.0727 69.4957 62.9119 68.7003 62.9119H66.7315V70.9062ZM75.402 72V64.3636H76.5753V72H75.402ZM75.9986 63.0909C75.7699 63.0909 75.5727 63.013 75.407 62.8572C75.2446 62.7015 75.1634 62.5142 75.1634 62.2955C75.1634 62.0767 75.2446 61.8894 75.407 61.7337C75.5727 61.5779 75.7699 61.5 75.9986 61.5C76.2273 61.5 76.4228 61.5779 76.5852 61.7337C76.7509 61.8894 76.8338 62.0767 76.8338 62.2955C76.8338 62.5142 76.7509 62.7015 76.5852 62.8572C76.4228 63.013 76.2273 63.0909 75.9986 63.0909ZM82.0453 64.3636V65.358H78.0879V64.3636H82.0453ZM79.2413 62.5341H80.4146V69.8125C80.4146 70.1439 80.4627 70.3925 80.5588 70.5582C80.6582 70.7206 80.7842 70.83 80.9366 70.8864C81.0924 70.9394 81.2565 70.9659 81.4288 70.9659C81.5581 70.9659 81.6641 70.9593 81.747 70.946C81.8298 70.9295 81.8961 70.9162 81.9458 70.9062L82.1845 71.9602C82.1049 71.9901 81.9939 72.0199 81.8514 72.0497C81.7089 72.0829 81.5282 72.0994 81.3095 72.0994C80.978 72.0994 80.6532 72.0282 80.335 71.8857C80.0202 71.7431 79.7583 71.526 79.5495 71.2344C79.344 70.9427 79.2413 70.5748 79.2413 70.1307V62.5341ZM86.0574 72.179C85.5734 72.179 85.1343 72.0878 84.7399 71.9055C84.3455 71.7199 84.0323 71.4531 83.8002 71.1051C83.5682 70.7538 83.4522 70.3295 83.4522 69.8324C83.4522 69.3949 83.5384 69.0402 83.7108 68.7685C83.8831 68.4934 84.1135 68.2779 84.4018 68.1222C84.6902 67.9664 85.0083 67.8504 85.3564 67.7741C85.7077 67.6946 86.0607 67.6316 86.4153 67.5852C86.8793 67.5256 87.2555 67.4808 87.5439 67.451C87.8355 67.4179 88.0476 67.3632 88.1802 67.2869C88.3161 67.2107 88.3841 67.0781 88.3841 66.8892V66.8494C88.3841 66.3589 88.2498 65.9777 87.9814 65.706C87.7162 65.4342 87.3135 65.2983 86.7733 65.2983C86.2131 65.2983 85.774 65.4209 85.4558 65.6662C85.1376 65.9115 84.9139 66.1733 84.7846 66.4517L83.671 66.054C83.8699 65.59 84.135 65.2287 84.4664 64.9702C84.8012 64.7083 85.1658 64.526 85.5602 64.4233C85.9579 64.3172 86.349 64.2642 86.7335 64.2642C86.9788 64.2642 87.2605 64.294 87.5787 64.3537C87.9002 64.41 88.21 64.5277 88.5083 64.7067C88.81 64.8857 89.0602 65.1558 89.2591 65.517C89.4579 65.8783 89.5574 66.3622 89.5574 66.9688V72H88.3841V70.9659H88.3244C88.2449 71.1316 88.1123 71.3089 87.9267 71.4979C87.7411 71.6868 87.4941 71.8475 87.1859 71.9801C86.8777 72.1127 86.5015 72.179 86.0574 72.179ZM86.2363 71.125C86.7003 71.125 87.0914 71.0339 87.4096 70.8516C87.7311 70.6693 87.9731 70.4339 88.1355 70.1456C88.3012 69.8572 88.3841 69.554 88.3841 69.2358V68.1619C88.3343 68.2216 88.225 68.2763 88.0559 68.326C87.8902 68.3724 87.698 68.4138 87.4792 68.4503C87.2638 68.4834 87.0533 68.5133 86.8478 68.5398C86.6457 68.563 86.4816 68.5829 86.3556 68.5994C86.0507 68.6392 85.7657 68.7038 85.5005 68.7933C85.2387 68.8795 85.0266 69.0104 84.8642 69.1861C84.7051 69.3584 84.6255 69.5937 84.6255 69.892C84.6255 70.2997 84.7763 70.608 85.0779 70.8168C85.3829 71.0223 85.769 71.125 86.2363 71.125ZM91.6989 72V64.3636H92.8324V65.5568H92.9318C93.0909 65.1491 93.3478 64.8326 93.7024 64.6072C94.0571 64.3786 94.483 64.2642 94.9801 64.2642C95.4839 64.2642 95.9032 64.3786 96.2379 64.6072C96.576 64.8326 96.8395 65.1491 97.0284 65.5568H97.108C97.3035 65.1624 97.5968 64.8492 97.9879 64.6172C98.379 64.3819 98.848 64.2642 99.3949 64.2642C100.078 64.2642 100.636 64.478 101.07 64.9055C101.504 65.3298 101.722 65.991 101.722 66.8892V72H100.548V66.8892C100.548 66.3258 100.394 65.9231 100.086 65.6811C99.7777 65.4392 99.4148 65.3182 98.9972 65.3182C98.4602 65.3182 98.0443 65.4806 97.7493 65.8054C97.4543 66.1269 97.3068 66.5346 97.3068 67.0284V72H96.1136V66.7699C96.1136 66.3357 95.9728 65.986 95.6911 65.7209C95.4093 65.4524 95.0464 65.3182 94.6023 65.3182C94.2973 65.3182 94.0123 65.3994 93.7472 65.5618C93.4853 65.7242 93.2732 65.9496 93.1108 66.2379C92.9517 66.523 92.8722 66.8527 92.8722 67.2273V72H91.6989ZM104.026 72V61.8182H105.199V65.5767H105.299C105.385 65.4441 105.504 65.2751 105.657 65.0696C105.812 64.8608 106.034 64.6752 106.323 64.5128C106.614 64.3471 107.009 64.2642 107.506 64.2642C108.149 64.2642 108.716 64.425 109.206 64.7464C109.697 65.0679 110.08 65.5237 110.355 66.1136C110.63 66.7036 110.767 67.3996 110.767 68.2017C110.767 69.0104 110.63 69.7114 110.355 70.3047C110.08 70.8946 109.699 71.352 109.211 71.6768C108.724 71.9983 108.162 72.1591 107.526 72.1591C107.035 72.1591 106.643 72.0779 106.348 71.9155C106.053 71.7498 105.826 71.5625 105.667 71.3537C105.507 71.1416 105.385 70.9659 105.299 70.8267H105.159V72H104.026ZM105.179 68.1818C105.179 68.7585 105.264 69.2673 105.433 69.7081C105.602 70.1456 105.849 70.4886 106.174 70.7372C106.498 70.9825 106.896 71.1051 107.367 71.1051C107.857 71.1051 108.267 70.9759 108.595 70.7173C108.926 70.4555 109.175 70.1042 109.341 69.6634C109.51 69.2192 109.594 68.7254 109.594 68.1818C109.594 67.6449 109.511 67.161 109.346 66.7301C109.183 66.2959 108.936 65.9529 108.605 65.701C108.277 65.4458 107.864 65.3182 107.367 65.3182C106.89 65.3182 106.489 65.4392 106.164 65.6811C105.839 65.9197 105.594 66.2545 105.428 66.6854C105.262 67.1129 105.179 67.6117 105.179 68.1818ZM114.809 72.179C114.325 72.179 113.886 72.0878 113.492 71.9055C113.097 71.7199 112.784 71.4531 112.552 71.1051C112.32 70.7538 112.204 70.3295 112.204 69.8324C112.204 69.3949 112.29 69.0402 112.463 68.7685C112.635 68.4934 112.865 68.2779 113.154 68.1222C113.442 67.9664 113.76 67.8504 114.108 67.7741C114.46 67.6946 114.813 67.6316 115.167 67.5852C115.631 67.5256 116.007 67.4808 116.296 67.451C116.587 67.4179 116.8 67.3632 116.932 67.2869C117.068 67.2107 117.136 67.0781 117.136 66.8892V66.8494C117.136 66.3589 117.002 65.9777 116.733 65.706C116.468 65.4342 116.065 65.2983 115.525 65.2983C114.965 65.2983 114.526 65.4209 114.208 65.6662C113.89 65.9115 113.666 66.1733 113.537 66.4517L112.423 66.054C112.622 65.59 112.887 65.2287 113.218 64.9702C113.553 64.7083 113.918 64.526 114.312 64.4233C114.71 64.3172 115.101 64.2642 115.485 64.2642C115.731 64.2642 116.012 64.294 116.331 64.3537C116.652 64.41 116.962 64.5277 117.26 64.7067C117.562 64.8857 117.812 65.1558 118.011 65.517C118.21 65.8783 118.309 66.3622 118.309 66.9688V72H117.136V70.9659H117.076C116.997 71.1316 116.864 71.3089 116.679 71.4979C116.493 71.6868 116.246 71.8475 115.938 71.9801C115.63 72.1127 115.253 72.179 114.809 72.179ZM114.988 71.125C115.452 71.125 115.843 71.0339 116.162 70.8516C116.483 70.6693 116.725 70.4339 116.887 70.1456C117.053 69.8572 117.136 69.554 117.136 69.2358V68.1619C117.086 68.2216 116.977 68.2763 116.808 68.326C116.642 68.3724 116.45 68.4138 116.231 68.4503C116.016 68.4834 115.805 68.5133 115.6 68.5398C115.398 68.563 115.234 68.5829 115.108 68.5994C114.803 68.6392 114.518 68.7038 114.252 68.7933C113.991 68.8795 113.779 69.0104 113.616 69.1861C113.457 69.3584 113.377 69.5937 113.377 69.892C113.377 70.2997 113.528 70.608 113.83 70.8168C114.135 71.0223 114.521 71.125 114.988 71.125ZM121.545 69.2159L121.525 67.7642H121.763L125.104 64.3636H126.556L122.996 67.9631H122.897L121.545 69.2159ZM120.451 72V61.8182H121.624V72H120.451ZM125.303 72L122.32 68.2216L123.155 67.4062L126.795 72H125.303ZM130.313 72.179C129.829 72.179 129.39 72.0878 128.996 71.9055C128.601 71.7199 128.288 71.4531 128.056 71.1051C127.824 70.7538 127.708 70.3295 127.708 69.8324C127.708 69.3949 127.794 69.0402 127.967 68.7685C128.139 68.4934 128.369 68.2779 128.658 68.1222C128.946 67.9664 129.264 67.8504 129.612 67.7741C129.964 67.6946 130.317 67.6316 130.671 67.5852C131.135 67.5256 131.511 67.4808 131.8 67.451C132.091 67.4179 132.304 67.3632 132.436 67.2869C132.572 67.2107 132.64 67.0781 132.64 66.8892V66.8494C132.64 66.3589 132.506 65.9777 132.237 65.706C131.972 65.4342 131.569 65.2983 131.029 65.2983C130.469 65.2983 130.03 65.4209 129.712 65.6662C129.393 65.9115 129.17 66.1733 129.04 66.4517L127.927 66.054C128.126 65.59 128.391 65.2287 128.722 64.9702C129.057 64.7083 129.422 64.526 129.816 64.4233C130.214 64.3172 130.605 64.2642 130.989 64.2642C131.235 64.2642 131.516 64.294 131.835 64.3537C132.156 64.41 132.466 64.5277 132.764 64.7067C133.066 64.8857 133.316 65.1558 133.515 65.517C133.714 65.8783 133.813 66.3622 133.813 66.9688V72H132.64V70.9659H132.58C132.501 71.1316 132.368 71.3089 132.183 71.4979C131.997 71.6868 131.75 71.8475 131.442 71.9801C131.134 72.1127 130.757 72.179 130.313 72.179ZM130.492 71.125C130.956 71.125 131.347 71.0339 131.665 70.8516C131.987 70.6693 132.229 70.4339 132.391 70.1456C132.557 69.8572 132.64 69.554 132.64 69.2358V68.1619C132.59 68.2216 132.481 68.2763 132.312 68.326C132.146 68.3724 131.954 68.4138 131.735 68.4503C131.52 68.4834 131.309 68.5133 131.104 68.5398C130.902 68.563 130.737 68.5829 130.612 68.5994C130.307 68.6392 130.022 68.7038 129.756 68.7933C129.495 68.8795 129.282 69.0104 129.12 69.1861C128.961 69.3584 128.881 69.5937 128.881 69.892C128.881 70.2997 129.032 70.608 129.334 70.8168C129.639 71.0223 130.025 71.125 130.492 71.125ZM137.128 67.4062V72H135.955V64.3636H137.088V65.5568H137.188C137.367 65.169 137.638 64.8575 138.003 64.6222C138.368 64.3835 138.838 64.2642 139.415 64.2642C139.932 64.2642 140.384 64.3703 140.772 64.5824C141.16 64.7912 141.462 65.1094 141.677 65.5369C141.892 65.9612 142 66.4981 142 67.1477V72H140.827V67.2273C140.827 66.6274 140.671 66.16 140.36 65.8253C140.048 65.4872 139.62 65.3182 139.077 65.3182C138.702 65.3182 138.368 65.3994 138.073 65.5618C137.781 65.7242 137.551 65.9612 137.382 66.2727C137.213 66.5843 137.128 66.9621 137.128 67.4062ZM149.175 69.2159L149.156 67.7642H149.394L152.735 64.3636H154.187L150.627 67.9631H150.528L149.175 69.2159ZM148.082 72V61.8182H149.255V72H148.082ZM152.934 72L149.951 68.2216L150.786 67.4062L154.425 72H152.934ZM158.584 72.1591C157.848 72.1591 157.214 71.9967 156.68 71.6719C156.15 71.3438 155.74 70.8864 155.452 70.2997C155.167 69.7098 155.025 69.0237 155.025 68.2415C155.025 67.4593 155.167 66.7699 155.452 66.1733C155.74 65.5734 156.141 65.1061 156.655 64.7713C157.172 64.4332 157.775 64.2642 158.465 64.2642C158.863 64.2642 159.255 64.3305 159.643 64.4631C160.031 64.5956 160.384 64.8111 160.702 65.1094C161.02 65.4044 161.274 65.7955 161.463 66.2827C161.652 66.7699 161.746 67.3698 161.746 68.0824V68.5795H155.86V67.5653H160.553C160.553 67.1345 160.467 66.75 160.294 66.4119C160.125 66.0739 159.883 65.8071 159.569 65.6115C159.257 65.416 158.889 65.3182 158.465 65.3182C157.998 65.3182 157.593 65.4342 157.252 65.6662C156.914 65.8949 156.654 66.1932 156.471 66.5611C156.289 66.929 156.198 67.3234 156.198 67.7443V68.4205C156.198 68.9972 156.297 69.486 156.496 69.8871C156.698 70.2848 156.978 70.5881 157.336 70.7969C157.694 71.0024 158.11 71.1051 158.584 71.1051C158.892 71.1051 159.171 71.062 159.419 70.9759C159.671 70.8864 159.888 70.7538 160.071 70.5781C160.253 70.3991 160.394 70.1771 160.493 69.9119L161.627 70.2301C161.507 70.6146 161.307 70.9527 161.025 71.2443C160.743 71.5327 160.395 71.758 159.981 71.9205C159.567 72.0795 159.101 72.1591 158.584 72.1591ZM167.627 72V61.8182H168.86V66.8693H168.98L173.554 61.8182H175.164L170.889 66.4119L175.164 72H173.673L170.133 67.267L168.86 68.6989V72H167.627ZM179.242 72.1591C178.507 72.1591 177.872 71.9967 177.338 71.6719C176.808 71.3438 176.399 70.8864 176.11 70.2997C175.825 69.7098 175.683 69.0237 175.683 68.2415C175.683 67.4593 175.825 66.7699 176.11 66.1733C176.399 65.5734 176.8 65.1061 177.313 64.7713C177.83 64.4332 178.434 64.2642 179.123 64.2642C179.521 64.2642 179.914 64.3305 180.301 64.4631C180.689 64.5956 181.042 64.8111 181.36 65.1094C181.678 65.4044 181.932 65.7955 182.121 66.2827C182.31 66.7699 182.404 67.3698 182.404 68.0824V68.5795H176.518V67.5653H181.211C181.211 67.1345 181.125 66.75 180.953 66.4119C180.784 66.0739 180.542 65.8071 180.227 65.6115C179.915 65.416 179.547 65.3182 179.123 65.3182C178.656 65.3182 178.251 65.4342 177.91 65.6662C177.572 65.8949 177.312 66.1932 177.129 66.5611C176.947 66.929 176.856 67.3234 176.856 67.7443V68.4205C176.856 68.9972 176.955 69.486 177.154 69.8871C177.356 70.2848 177.637 70.5881 177.994 70.7969C178.352 71.0024 178.768 71.1051 179.242 71.1051C179.551 71.1051 179.829 71.062 180.078 70.9759C180.329 70.8864 180.547 70.7538 180.729 70.5781C180.911 70.3991 181.052 70.1771 181.151 69.9119L182.285 70.2301C182.166 70.6146 181.965 70.9527 181.683 71.2443C181.402 71.5327 181.054 71.758 180.639 71.9205C180.225 72.0795 179.759 72.1591 179.242 72.1591ZM184.189 72V64.3636H185.323V65.517H185.402C185.541 65.1392 185.793 64.8326 186.158 64.5973C186.522 64.362 186.933 64.2443 187.391 64.2443C187.477 64.2443 187.585 64.246 187.714 64.2493C187.843 64.2526 187.941 64.2576 188.007 64.2642V65.4574C187.968 65.4474 187.876 65.4325 187.734 65.4126C187.595 65.3894 187.447 65.3778 187.291 65.3778C186.92 65.3778 186.589 65.4557 186.297 65.6115C186.009 65.764 185.78 65.9761 185.611 66.2479C185.445 66.5163 185.362 66.8229 185.362 67.1676V72H184.189ZM191.645 72.179C191.161 72.179 190.722 72.0878 190.328 71.9055C189.933 71.7199 189.62 71.4531 189.388 71.1051C189.156 70.7538 189.04 70.3295 189.04 69.8324C189.04 69.3949 189.126 69.0402 189.299 68.7685C189.471 68.4934 189.701 68.2779 189.99 68.1222C190.278 67.9664 190.596 67.8504 190.944 67.7741C191.296 67.6946 191.649 67.6316 192.003 67.5852C192.467 67.5256 192.843 67.4808 193.132 67.451C193.423 67.4179 193.636 67.3632 193.768 67.2869C193.904 67.2107 193.972 67.0781 193.972 66.8892V66.8494C193.972 66.3589 193.838 65.9777 193.569 65.706C193.304 65.4342 192.901 65.2983 192.361 65.2983C191.801 65.2983 191.362 65.4209 191.044 65.6662C190.725 65.9115 190.502 66.1733 190.373 66.4517L189.259 66.054C189.458 65.59 189.723 65.2287 190.054 64.9702C190.389 64.7083 190.754 64.526 191.148 64.4233C191.546 64.3172 191.937 64.2642 192.321 64.2642C192.567 64.2642 192.848 64.294 193.167 64.3537C193.488 64.41 193.798 64.5277 194.096 64.7067C194.398 64.8857 194.648 65.1558 194.847 65.517C195.046 65.8783 195.145 66.3622 195.145 66.9688V72H193.972V70.9659H193.912C193.833 71.1316 193.7 71.3089 193.515 71.4979C193.329 71.6868 193.082 71.8475 192.774 71.9801C192.466 72.1127 192.089 72.179 191.645 72.179ZM191.824 71.125C192.288 71.125 192.679 71.0339 192.998 70.8516C193.319 70.6693 193.561 70.4339 193.723 70.1456C193.889 69.8572 193.972 69.554 193.972 69.2358V68.1619C193.922 68.2216 193.813 68.2763 193.644 68.326C193.478 68.3724 193.286 68.4138 193.067 68.4503C192.852 68.4834 192.641 68.5133 192.436 68.5398C192.234 68.563 192.069 68.5829 191.944 68.5994C191.639 68.6392 191.354 68.7038 191.088 68.7933C190.827 68.8795 190.614 69.0104 190.452 69.1861C190.293 69.3584 190.213 69.5937 190.213 69.892C190.213 70.2997 190.364 70.608 190.666 70.8168C190.971 71.0223 191.357 71.125 191.824 71.125ZM198.46 67.4062V72H197.287V64.3636H198.42V65.5568H198.52C198.699 65.169 198.97 64.8575 199.335 64.6222C199.7 64.3835 200.17 64.2642 200.747 64.2642C201.264 64.2642 201.716 64.3703 202.104 64.5824C202.492 64.7912 202.794 65.1094 203.009 65.5369C203.224 65.9612 203.332 66.4981 203.332 67.1477V72H202.159V67.2273C202.159 66.6274 202.003 66.16 201.692 65.8253C201.38 65.4872 200.952 65.3182 200.409 65.3182C200.034 65.3182 199.7 65.3994 199.405 65.5618C199.113 65.7242 198.883 65.9612 198.714 66.2727C198.545 66.5843 198.46 66.9621 198.46 67.4062ZM205.476 64.3636H206.65V72.5568C206.65 73.0275 206.568 73.4351 206.406 73.7798C206.247 74.1245 206.005 74.3913 205.68 74.5803C205.359 74.7692 204.953 74.8636 204.462 74.8636C204.422 74.8636 204.382 74.8636 204.343 74.8636C204.303 74.8636 204.263 74.8636 204.223 74.8636V73.7699C204.263 73.7699 204.3 73.7699 204.333 73.7699C204.366 73.7699 204.402 73.7699 204.442 73.7699C204.8 73.7699 205.062 73.6638 205.228 73.4517C205.393 73.2429 205.476 72.9446 205.476 72.5568V64.3636ZM206.053 63.0909C205.824 63.0909 205.627 63.013 205.461 62.8572C205.299 62.7015 205.218 62.5142 205.218 62.2955C205.218 62.0767 205.299 61.8894 205.461 61.7337C205.627 61.5779 205.824 61.5 206.053 61.5C206.282 61.5 206.477 61.5779 206.64 61.7337C206.805 61.8894 206.888 62.0767 206.888 62.2955C206.888 62.5142 206.805 62.7015 206.64 62.8572C206.477 63.013 206.282 63.0909 206.053 63.0909ZM211.046 72.179C210.562 72.179 210.123 72.0878 209.728 71.9055C209.334 71.7199 209.021 71.4531 208.789 71.1051C208.557 70.7538 208.441 70.3295 208.441 69.8324C208.441 69.3949 208.527 69.0402 208.699 68.7685C208.871 68.4934 209.102 68.2779 209.39 68.1222C209.678 67.9664 209.997 67.8504 210.345 67.7741C210.696 67.6946 211.049 67.6316 211.404 67.5852C211.868 67.5256 212.244 67.4808 212.532 67.451C212.824 67.4179 213.036 67.3632 213.169 67.2869C213.304 67.2107 213.372 67.0781 213.372 66.8892V66.8494C213.372 66.3589 213.238 65.9777 212.97 65.706C212.704 65.4342 212.302 65.2983 211.762 65.2983C211.201 65.2983 210.762 65.4209 210.444 65.6662C210.126 65.9115 209.902 66.1733 209.773 66.4517L208.659 66.054C208.858 65.59 209.123 65.2287 209.455 64.9702C209.789 64.7083 210.154 64.526 210.548 64.4233C210.946 64.3172 211.337 64.2642 211.722 64.2642C211.967 64.2642 212.249 64.294 212.567 64.3537C212.888 64.41 213.198 64.5277 213.497 64.7067C213.798 64.8857 214.048 65.1558 214.247 65.517C214.446 65.8783 214.546 66.3622 214.546 66.9688V72H213.372V70.9659H213.313C213.233 71.1316 213.101 71.3089 212.915 71.4979C212.729 71.6868 212.482 71.8475 212.174 71.9801C211.866 72.1127 211.49 72.179 211.046 72.179ZM211.225 71.125C211.689 71.125 212.08 71.0339 212.398 70.8516C212.719 70.6693 212.961 70.4339 213.124 70.1456C213.289 69.8572 213.372 69.554 213.372 69.2358V68.1619C213.323 68.2216 213.213 68.2763 213.044 68.326C212.878 68.3724 212.686 68.4138 212.468 68.4503C212.252 68.4834 212.042 68.5133 211.836 68.5398C211.634 68.563 211.47 68.5829 211.344 68.5994C211.039 68.6392 210.754 68.7038 210.489 68.7933C210.227 68.8795 210.015 69.0104 209.852 69.1861C209.693 69.3584 209.614 69.5937 209.614 69.892C209.614 70.2997 209.765 70.608 210.066 70.8168C210.371 71.0223 210.757 71.125 211.225 71.125ZM217.86 67.4062V72H216.687V64.3636H217.821V65.5568H217.92C218.099 65.169 218.371 64.8575 218.735 64.6222C219.1 64.3835 219.571 64.2642 220.147 64.2642C220.664 64.2642 221.117 64.3703 221.505 64.5824C221.892 64.7912 222.194 65.1094 222.409 65.5369C222.625 65.9612 222.733 66.4981 222.733 67.1477V72H221.559V67.2273C221.559 66.6274 221.404 66.16 221.092 65.8253C220.78 65.4872 220.353 65.3182 219.809 65.3182C219.435 65.3182 219.1 65.3994 218.805 65.5618C218.513 65.7242 218.283 65.9612 218.114 66.2727C217.945 66.5843 217.86 66.9621 217.86 67.4062ZM227.959 75.0227C227.392 75.0227 226.905 74.9498 226.497 74.804C226.09 74.6615 225.75 74.4725 225.478 74.2372C225.21 74.0052 224.996 73.7566 224.837 73.4915L225.771 72.8352C225.878 72.9744 226.012 73.1335 226.174 73.3125C226.337 73.4948 226.559 73.6522 226.84 73.7848C227.125 73.9207 227.498 73.9886 227.959 73.9886C228.575 73.9886 229.084 73.8395 229.485 73.5412C229.886 73.2429 230.087 72.7756 230.087 72.1392V70.5881H229.987C229.901 70.7273 229.779 70.8996 229.619 71.1051C229.464 71.3073 229.238 71.4879 228.943 71.647C228.652 71.8028 228.257 71.8807 227.76 71.8807C227.144 71.8807 226.59 71.7348 226.1 71.4432C225.612 71.1515 225.226 70.7273 224.941 70.1705C224.66 69.6136 224.519 68.9375 224.519 68.142C224.519 67.3598 224.656 66.6787 224.931 66.0987C225.206 65.5154 225.589 65.0646 226.08 64.7464C226.57 64.425 227.137 64.2642 227.78 64.2642C228.277 64.2642 228.672 64.3471 228.963 64.5128C229.258 64.6752 229.484 64.8608 229.639 65.0696C229.798 65.2751 229.921 65.4441 230.007 65.5767H230.127V64.3636H231.26V72.2188C231.26 72.875 231.111 73.4086 230.813 73.8196C230.518 74.2339 230.12 74.5372 229.619 74.7294C229.122 74.925 228.569 75.0227 227.959 75.0227ZM227.919 70.8267C228.39 70.8267 228.788 70.719 229.112 70.5036C229.437 70.2881 229.684 69.9782 229.853 69.5739C230.022 69.1695 230.107 68.6856 230.107 68.1222C230.107 67.572 230.024 67.0864 229.858 66.6655C229.692 66.2446 229.447 65.9148 229.122 65.6761C228.798 65.4375 228.396 65.3182 227.919 65.3182C227.422 65.3182 227.008 65.4441 226.676 65.696C226.348 65.9479 226.101 66.286 225.936 66.7102C225.773 67.1345 225.692 67.6051 225.692 68.1222C225.692 68.6525 225.775 69.1214 225.941 69.5291C226.11 69.9335 226.358 70.2517 226.686 70.4837C227.018 70.7124 227.429 70.8267 227.919 70.8267Z" fill="#212121"/>
</svg>
