<svg width="24" height="24" viewBox="0 0 24 24" fill="none" xmlns="http://www.w3.org/2000/svg">
<path d="M9.75 16.4062L10.375 15.7812C10.5 15.625 10.5 15.4062 10.3438 15.25L7.84375 12.8125H18.625C18.8125 12.8125 19 12.6562 19 12.4375V11.5625C19 11.375 18.8125 11.1875 18.625 11.1875H7.84375L10.3438 8.78125C10.5 8.625 10.5 8.40625 10.375 8.25L9.75 7.625C9.59375 7.5 9.375 7.5 9.21875 7.625L5.09375 11.75C4.96875 11.9062 4.96875 12.125 5.09375 12.2812L9.21875 16.4062C9.375 16.5312 9.59375 16.5312 9.75 16.4062Z" fill="#333333"/>
</svg>
