<svg width="24" height="24" viewBox="0 0 24 24" fill="none" xmlns="http://www.w3.org/2000/svg">
<rect width="24" height="24" fill="white"/>
<path d="M5.5 4C4.67156 4 4 4.67156 4 5.5V7H2.5C2.22384 7 2 7.225 2 7.5C2 7.775 2.22384 8 2.5 8H10.5C10.775 8 11 8.225 11 8.5C11 8.775 10.775 9 10.5 9H3.5C3.22375 9 3 9.225 3 9.5C3 9.775 3.22375 10 3.5 10H9.5C9.775 10 10 10.225 10 10.5C10 10.775 9.775 11 9.5 11H2.5C2.22384 11 2 11.225 2 11.5C2 11.775 2.22384 12 2.5 12H8.5C8.775 12 9 12.225 9 12.5C9 12.775 8.775 13 8.5 13H4V17C4 18.6562 5.31562 20 7 20C8.65625 20 10 18.6562 10 17H14C14 18.6562 15.3156 20 17 20C18.6562 20 20 18.6562 20 17H21C21.5531 17 22 16.5531 22 16C22 15.4469 21.5531 15 21 15V11.4156C21 10.8844 20.7906 10.375 20.4156 10L18 7.58437C17.5969 7.20937 17.1156 7 16.5844 7H15V5.5C15 4.67156 14.3281 4 13.5 4H5.5ZM19 11.4156V12H15V9H16.5844L19 11.4156ZM7 18.5C6.17188 18.5 5.5 17.8281 5.5 17C5.5 16.1719 6.17188 15.5 7 15.5C7.82812 15.5 8.5 16.1719 8.5 17C8.5 17.8281 7.82812 18.5 7 18.5ZM18.5 17C18.5 17.8281 17.8281 18.5 17 18.5C16.1719 18.5 15.5 17.8281 15.5 17C15.5 16.1719 16.1719 15.5 17 15.5C17.8281 15.5 18.5 16.1719 18.5 17Z" fill="#212121"/>
</svg>
