<svg width="18" height="18" viewBox="0 0 18 18" fill="none" xmlns="http://www.w3.org/2000/svg">
<path d="M15.875 7C16.5057 7.36318 17.0171 7.90203 17.3468 8.55085C17.6765 9.19966 17.8103 9.9304 17.7319 10.6539C17.6534 11.3775 17.3661 12.0626 16.905 12.6256C16.4439 13.1887 15.8289 13.6054 15.135 13.825C14.8898 14.9379 14.2718 15.9337 13.3835 16.6474C12.4951 17.3612 11.3896 17.7502 10.25 17.75H8.37503C8.20927 17.75 8.05029 17.6842 7.93308 17.5669C7.81587 17.4497 7.75003 17.2908 7.75003 17.125C7.75003 16.9592 7.81587 16.8003 7.93308 16.6831C8.05029 16.5658 8.20927 16.5 8.37503 16.5H10.25C11.0258 16.5002 11.7826 16.2599 12.4161 15.8122C13.0496 15.3645 13.5288 14.7313 13.7875 14H13.375C13.2093 14 13.0503 13.9342 12.9331 13.8169C12.8159 13.6997 12.75 13.5408 12.75 13.375V7.125C12.75 6.95924 12.8159 6.80027 12.9331 6.68306C13.0503 6.56585 13.2093 6.5 13.375 6.5H14C14.2025 6.5 14.4013 6.51625 14.5963 6.5475C14.4556 5.16112 13.8053 3.87631 12.7713 2.94203C11.7374 2.00774 10.3935 1.49049 9.00003 1.49049C7.60652 1.49049 6.26262 2.00774 5.22871 2.94203C4.1948 3.87631 3.54449 5.16112 3.40378 6.5475C3.60096 6.51592 3.80033 6.50003 4.00003 6.5H4.62503C4.79079 6.5 4.94976 6.56585 5.06697 6.68306C5.18418 6.80027 5.25003 6.95924 5.25003 7.125V13.375C5.25003 13.5408 5.18418 13.6997 5.06697 13.8169C4.94976 13.9342 4.79079 14 4.62503 14H4.00003C3.17375 14.0009 2.37031 13.7289 1.71452 13.2263C1.05874 12.7236 0.587332 12.0184 0.373546 11.2203C0.159759 10.4221 0.215563 9.57573 0.532287 8.81257C0.849012 8.04941 1.40892 7.41222 2.12503 7C2.12503 5.17664 2.84935 3.42795 4.13867 2.13864C5.42798 0.849328 7.17666 0.125 9.00003 0.125C10.8234 0.125 12.5721 0.849328 13.8614 2.13864C15.1507 3.42795 15.875 5.17664 15.875 7V7ZM4.00003 7.75C3.33699 7.75 2.7011 8.01339 2.23226 8.48223C1.76342 8.95107 1.50003 9.58696 1.50003 10.25C1.50003 10.913 1.76342 11.5489 2.23226 12.0178C2.7011 12.4866 3.33699 12.75 4.00003 12.75V7.75ZM16.5 10.25C16.5 9.58696 16.2366 8.95107 15.7678 8.48223C15.299 8.01339 14.6631 7.75 14 7.75V12.75C14.6631 12.75 15.299 12.4866 15.7678 12.0178C16.2366 11.5489 16.5 10.913 16.5 10.25Z" fill="#212121"/>
</svg>
