<svg width="16" height="16" viewBox="0 0 16 16" fill="none" xmlns="http://www.w3.org/2000/svg">
<path d="M15.3581 0C15.2821 0 15.2041 0.0139983 15.1261 0.0459943L3.59955 4.67742H0.31996C0.143982 4.67742 0 4.8254 0 5.00937V10.9886C0 11.1726 0.143982 11.3206 0.31996 11.3206H2.35171C2.27772 11.5526 2.23972 11.7985 2.23972 12.0485C2.23972 13.3663 3.31559 14.4382 4.63942 14.4382C5.74728 14.4382 6.68117 13.6863 6.95713 12.6704L15.1281 15.954C15.2061 15.984 15.2841 16 15.3601 16C15.698 16 16 15.716 16 15.3361V0.663917C15.998 0.283964 15.698 0 15.3581 0ZM4.63942 13.0044C4.10949 13.0044 3.67954 12.5764 3.67954 12.0485C3.67954 11.8245 3.75753 11.6105 3.89951 11.4406L5.5973 12.1225C5.55731 12.6144 5.14336 13.0044 4.63942 13.0044Z" fill="#212121"/>
</svg>
