<svg width="24" height="24" viewBox="0 0 24 24" fill="none" xmlns="http://www.w3.org/2000/svg">
<path d="M16 14C15.1875 14 14.4688 14.3125 13.9062 14.8438L10.8438 12.9062C11.0312 12.3438 11.0312 11.6875 10.8438 11.125L13.9062 9.1875C14.4688 9.6875 15.1875 10 16 10C17.6562 10 19 8.65625 19 7C19 5.34375 17.6562 4 16 4C14.3438 4 13 5.34375 13 7C13 7.3125 13.0312 7.625 13.125 7.90625L10.0625 9.84375C9.5 9.3125 8.78125 9 8 9C6.34375 9 5 10.3438 5 12C5 13.6562 6.34375 15 8 15C8.78125 15 9.5 14.6875 10.0625 14.1875L13.125 16.125C13.0312 16.4062 13 16.7188 13 17C13 18.6562 14.3438 20 16 20C17.6562 20 19 18.6562 19 17C19 15.3438 17.6562 14 16 14ZM16 5.5C16.8125 5.5 17.5 6.1875 17.5 7C17.5 7.84375 16.8125 8.5 16 8.5C15.1562 8.5 14.5 7.84375 14.5 7C14.5 6.1875 15.1562 5.5 16 5.5ZM8 13.5C7.15625 13.5 6.5 12.8438 6.5 12C6.5 11.1875 7.15625 10.5 8 10.5C8.8125 10.5 9.5 11.1875 9.5 12C9.5 12.8438 8.8125 13.5 8 13.5ZM16 18.5C15.1562 18.5 14.5 17.8438 14.5 17C14.5 16.1875 15.1562 15.5 16 15.5C16.8125 15.5 17.5 16.1875 17.5 17C17.5 17.8438 16.8125 18.5 16 18.5Z" fill="#333333"/>
</svg>
