<svg width="24" height="24" viewBox="0 0 24 24" fill="none" xmlns="http://www.w3.org/2000/svg">
<path d="M14 4.25C9.71875 4.25 6.25 7.75 6.25 12C6.25 16.2812 9.71875 19.75 14 19.75C18.25 19.75 21.75 16.2812 21.75 12C21.75 7.75 18.25 4.25 14 4.25ZM14 5.75C17.4375 5.75 20.25 8.5625 20.25 12C20.25 15.4688 17.4375 18.25 14 18.25C10.5312 18.25 7.75 15.4688 7.75 12C7.75 8.5625 10.5312 5.75 14 5.75ZM18.375 9.84375L17.6562 9.125C17.5312 8.96875 17.2812 8.96875 17.125 9.125L12.7188 13.5L10.8438 11.625C10.6875 11.4688 10.4688 11.4688 10.3125 11.625L9.59375 12.3125C9.46875 12.4688 9.46875 12.7188 9.59375 12.8438L12.4375 15.7188C12.5938 15.875 12.8125 15.875 12.9688 15.7188L18.375 10.375C18.5 10.2188 18.5 9.96875 18.375 9.84375Z" fill="#333333"/>
</svg>
