<svg width="50" height="50" viewBox="0 0 50 50" fill="none" xmlns="http://www.w3.org/2000/svg">
<circle cx="25" cy="25" r="24.5" fill="white" stroke="#212121"/>
<rect width="25" height="25" transform="translate(12.5 12.5)" fill="white"/>
<path d="M24.9998 28.8049C27.2474 28.8049 29.2598 28.9895 30.6944 29.4976C31.4083 29.7504 31.9442 30.0715 32.298 30.4576C32.6415 30.8325 32.8332 31.289 32.8332 31.8726C32.8332 32.4555 32.6406 32.9099 32.2961 33.2824C31.9408 33.6664 31.403 33.9848 30.687 34.2349C29.2487 34.7372 27.2358 34.9154 24.9998 34.9154C22.7528 34.9154 20.7404 34.7308 19.3057 34.2227C18.5917 33.9698 18.0557 33.6487 17.7018 33.2626C17.3582 32.8877 17.1665 32.4312 17.1665 31.8476C17.1665 31.2648 17.359 30.8103 17.7036 30.4378C18.0588 30.0538 18.5967 29.7354 19.3126 29.4854C20.751 28.9831 22.7639 28.8049 24.9998 28.8049ZM24.9998 15.082C27.7855 15.082 30.0144 17.3105 30.0144 20.0935C30.0144 22.8767 27.7854 25.1061 24.9998 25.1061C22.2153 25.1061 19.9853 22.8766 19.9853 20.0935C19.9853 17.3106 22.2152 15.082 24.9998 15.082Z" fill="#212121" stroke="black"/>
</svg>
