<svg width="12" height="16" viewBox="0 0 12 16" fill="none" xmlns="http://www.w3.org/2000/svg">
<path d="M8.75 7.5H5.25C5.09375 7.5 5 7.625 5 7.75V8.25C5 8.40625 5.09375 8.5 5.25 8.5H8.75C8.875 8.5 9 8.40625 9 8.25V7.75C9 7.625 8.875 7.5 8.75 7.5ZM8.75 10.5H5.25C5.09375 10.5 5 10.625 5 10.75V11.25C5 11.4062 5.09375 11.5 5.25 11.5H8.75C8.875 11.5 9 11.4062 9 11.25V10.75C9 10.625 8.875 10.5 8.75 10.5ZM3.5 7.25C3.0625 7.25 2.75 7.59375 2.75 8C2.75 8.4375 3.0625 8.75 3.5 8.75C3.90625 8.75 4.25 8.4375 4.25 8C4.25 7.59375 3.90625 7.25 3.5 7.25ZM3.5 10.25C3.0625 10.25 2.75 10.5938 2.75 11C2.75 11.4375 3.0625 11.75 3.5 11.75C3.90625 11.75 4.25 11.4375 4.25 11C4.25 10.5938 3.90625 10.25 3.5 10.25ZM10.5 2H8C8 0.90625 7.09375 0 6 0C4.875 0 4 0.90625 4 2H1.5C0.65625 2 0 2.6875 0 3.5V14.5C0 15.3438 0.65625 16 1.5 16H10.5C11.3125 16 12 15.3438 12 14.5V3.5C12 2.6875 11.3125 2 10.5 2ZM6 1.5C6.25 1.5 6.5 1.75 6.5 2C6.5 2.28125 6.25 2.5 6 2.5C5.71875 2.5 5.5 2.28125 5.5 2C5.5 1.75 5.71875 1.5 6 1.5ZM10.5 14.25C10.5 14.4062 10.375 14.5 10.25 14.5H1.75C1.59375 14.5 1.5 14.4062 1.5 14.25V3.75C1.5 3.625 1.59375 3.5 1.75 3.5H3V4.5C3 4.78125 3.21875 5 3.5 5H8.5C8.75 5 9 4.78125 9 4.5V3.5H10.25C10.375 3.5 10.5 3.625 10.5 3.75V14.25Z" fill="#212121"/>
</svg>
