<svg width="50" height="50" viewBox="0 0 50 50" fill="none" xmlns="http://www.w3.org/2000/svg">
<rect width="50" height="50" fill="white"/>
<path d="M40.9375 12.8483V10.3904C40.9375 10.1211 40.8303 9.86298 40.6399 9.67221C40.4495 9.48178 40.191 9.375 39.9217 9.375H5.39075C4.82966 9.375 4.375 9.82966 4.375 10.3904V12.8483L22.6564 21.4507L40.9375 12.8483Z" fill="#212121"/>
<path d="M39.9216 25.6244C40.262 25.636 40.6013 25.67 40.9373 25.7261V15.0924L23.0929 23.5017C22.8148 23.6238 22.4978 23.6238 22.2197 23.5017L4.37528 15.1023V34.7653C4.37528 35.0346 4.4824 35.2931 4.67283 35.4835C4.86326 35.6739 5.1217 35.781 5.39103 35.781H30.8831C30.8287 35.4447 30.7947 35.1057 30.7815 34.7653C30.7815 32.341 31.7445 30.016 33.4587 28.3019C35.1729 26.5877 37.4979 25.6246 39.9222 25.6246L39.9216 25.6244Z" fill="#212121"/>
<path d="M39.9215 27.6562C38.0363 27.6562 36.2278 28.4051 34.8945 29.7384C33.5612 31.0717 32.8123 32.8802 32.8123 34.7655C32.8123 36.6511 33.5611 38.4595 34.8945 39.7928C36.2278 41.1258 38.0363 41.875 39.9215 41.875C41.8071 41.875 43.6156 41.1259 44.9489 39.7928C46.2819 38.4595 47.0311 36.6511 47.0311 34.7655C47.0311 32.8802 46.2819 31.0717 44.9489 29.7384C43.6156 28.4051 41.8071 27.6562 39.9215 27.6562ZM39.9215 38.8279C39.5107 38.8279 39.1404 38.5804 38.9833 38.2009C38.8262 37.8214 38.9129 37.3847 39.2034 37.094C39.4941 36.8036 39.9307 36.7169 40.3102 36.874C40.6898 37.0311 40.9373 37.4014 40.9373 37.8121C40.9373 38.0815 40.8302 38.3399 40.6398 38.5303C40.4493 38.7208 40.1909 38.8279 39.9216 38.8279L39.9215 38.8279ZM40.9373 33.7499C40.9373 34.3106 40.4826 34.7653 39.9215 34.7653C39.3608 34.7653 38.9061 34.3106 38.9061 33.7499V31.7184C38.9061 31.1576 39.3608 30.703 39.9215 30.703C40.4826 30.703 40.9373 31.1576 40.9373 31.7184V33.7499Z" fill="#212121"/>
</svg>
