<svg width="150" height="150" viewBox="0 0 150 150" fill="none" xmlns="http://www.w3.org/2000/svg">
<g clip-path="url(#clip0_857_11101)">
<rect width="150" height="150" fill="white"/>
<path d="M75 135C108.137 135 135 108.137 135 75C135 41.8629 108.137 15 75 15C41.8629 15 15 41.8629 15 75C15 108.137 41.8629 135 75 135Z" fill="url(#paint0_linear_857_11101)"/>
<path d="M10.9834 111V112.661" stroke="#D2D8DF" stroke-width="2.40919" stroke-linecap="round"/>
<path d="M6 115.984H7.66121" stroke="#D2D8DF" stroke-width="2.40919" stroke-linecap="round"/>
<path d="M10.9834 120.414V118.753" stroke="#D2D8DF" stroke-width="2.40919" stroke-linecap="round"/>
<path d="M15.4132 115.984H13.752" stroke="#D2D8DF" stroke-width="2.40919" stroke-linecap="round"/>
<path fill-rule="evenodd" clip-rule="evenodd" d="M144.506 111.254C144.506 112.499 143.497 113.507 142.253 113.507C141.009 113.507 140 112.499 140 111.254C140 110.009 141.009 109 142.253 109C143.497 109 144.506 110.009 144.506 111.254Z" stroke="#D2D8DF" stroke-width="2.921" stroke-linecap="round"/>
<path fill-rule="evenodd" clip-rule="evenodd" d="M116.527 11.2643C116.527 13.0671 115.066 14.5286 113.264 14.5286C111.461 14.5286 110 13.0671 110 11.2643C110 9.46145 111.461 8 113.264 8C115.066 8 116.527 9.46145 116.527 11.2643" fill="#EBECEE"/>
<path fill-rule="evenodd" clip-rule="evenodd" d="M42.9051 7.95304C42.9051 9.03208 42.0308 9.90608 40.9525 9.90608C39.8738 9.90608 39 9.03208 39 7.95304C39 6.8745 39.8738 6 40.9525 6C42.0308 6 42.9051 6.8745 42.9051 7.95304" fill="#D1D8DF"/>
<path fill-rule="evenodd" clip-rule="evenodd" d="M0 53.2623C1.49515 52.7959 3.78701 50.9674 4.3175 49C4.79859 50.7391 6.81534 52.7959 8.635 52.9515C6.58665 53.6768 4.62819 55.8314 4.3175 57.5241C4.1061 55.7988 1.39735 53.5138 0 53.2623" fill="#EBECEE"/>
<path d="M146.491 44V45.1636" stroke="#D2D8DF" stroke-width="1.69948" stroke-linecap="round"/>
<path d="M143 47.4902H144.164" stroke="#D2D8DF" stroke-width="1.69948" stroke-linecap="round"/>
<path d="M146.491 50.982V49.8184" stroke="#D2D8DF" stroke-width="1.69948" stroke-linecap="round"/>
<path d="M149.4 47.4902H148.236" stroke="#D2D8DF" stroke-width="1.69948" stroke-linecap="round"/>
<path d="M65.8722 37.6643C70.6027 32.8992 78.325 32.8992 83.0959 37.628L86.0474 40.5743C87.1795 41.706 88.7159 42.3567 90.3332 42.3567H94.4976C101.209 42.3567 106.667 47.8089 106.667 54.5181V58.685C106.667 60.2977 107.314 61.8335 108.446 62.9652L111.357 65.8752C113.662 68.1385 114.915 71.2102 114.915 74.4435C114.956 77.6768 113.702 80.7525 111.438 83.0523L108.446 86.0431C107.314 87.1748 106.667 88.7106 106.667 90.3313V94.4902C106.667 101.199 101.209 106.66 94.4976 106.66H90.3332C88.7159 106.66 87.1795 107.302 86.0474 108.434L83.1364 111.344C80.7509 113.733 77.6377 114.901 74.5245 114.901C71.4113 114.901 68.2981 113.733 65.9126 111.388L62.9611 108.434C61.8291 107.302 60.2927 106.66 58.6754 106.66H54.511C47.7994 106.66 42.3412 101.199 42.3412 94.4902V90.3313C42.3412 88.7106 41.6943 87.1748 40.5622 86.0027L37.6511 83.1331C32.9207 78.4084 32.8802 70.6848 37.6107 65.9196L40.5622 62.9652C41.6943 61.8335 42.3412 60.2977 42.3412 58.6406V54.5181C42.3412 47.8089 47.7994 42.3567 54.511 42.3567H58.6754C60.2927 42.3567 61.8291 41.706 62.9611 40.5743L65.8722 37.6643ZM84.9154 81.3548C82.9342 81.3548 81.3574 82.935 81.3574 84.871C81.3574 86.8514 82.9342 88.4277 84.9154 88.4277C86.8561 88.4277 88.4329 86.8514 88.4329 84.871C88.4329 82.935 86.8561 81.3548 84.9154 81.3548ZM87.3817 61.591C86.007 60.2209 83.7833 60.2209 82.4086 61.591L61.6269 82.3652C60.2522 83.7393 60.2522 86.0027 61.6269 87.3768C62.2738 88.0639 63.1633 88.4277 64.0932 88.4277C65.0636 88.4277 65.9531 88.0639 66.6 87.3768L87.3817 66.6067C88.7563 65.2325 88.7563 62.9652 87.3817 61.591ZM64.1337 60.5806C62.193 60.5806 60.5757 62.1568 60.5757 64.0968C60.5757 66.0813 62.193 67.6535 64.1337 67.6535C66.0744 67.6535 67.6512 66.0813 67.6512 64.0968C67.6512 62.1568 66.0744 60.5806 64.1337 60.5806Z" fill="black"/>
<circle cx="107" cy="98" r="14" fill="#DA2929"/>
<g clip-path="url(#clip1_857_11101)">
<path d="M107.305 105.642C108.645 105.642 109.58 104.728 109.58 103.453C109.58 102.156 108.645 101.241 107.305 101.241C105.987 101.241 105.03 102.156 105.03 103.453C105.03 104.728 105.987 105.642 107.305 105.642ZM109.389 90.0371H105.222V94.2042L106.285 99.9658H108.304L109.389 94.2042V90.0371Z" fill="white"/>
</g>
</g>
<defs>
<linearGradient id="paint0_linear_857_11101" x1="74.5375" y1="-4.53747" x2="75.7666" y2="206.173" gradientUnits="userSpaceOnUse">
<stop stop-color="#F2F2F2"/>
<stop offset="1" stop-color="#EFEFEF"/>
</linearGradient>
<clipPath id="clip0_857_11101">
<rect width="150" height="150" fill="white"/>
</clipPath>
<clipPath id="clip1_857_11101">
<rect width="4.95238" height="16" fill="white" transform="translate(105 90)"/>
</clipPath>
</defs>
</svg>
