<svg width="150" height="150" viewBox="0 0 150 150" fill="none" xmlns="http://www.w3.org/2000/svg">
<g clip-path="url(#clip0_805_5679)">
<rect width="150" height="150" fill="white"/>
<path d="M75 134.5C108.137 134.5 135 107.637 135 74.5C135 41.3629 108.137 14.5 75 14.5C41.8629 14.5 15 41.3629 15 74.5C15 107.637 41.8629 134.5 75 134.5Z" fill="url(#paint0_linear_805_5679)"/>
<path d="M99.1807 33H50.7891C48.9886 33 47.2617 33.7091 45.9885 34.9714C44.7153 36.2336 44 37.9456 44 39.7307V94.3991H44.083V113.597C44.0829 114.338 44.2745 115.067 44.6393 115.714C45.0042 116.361 45.5303 116.904 46.1673 117.292C46.8043 117.681 47.531 117.9 48.278 117.931C49.0251 117.961 49.7675 117.802 50.4346 117.467L72.7558 106.249C73.364 105.947 74.0349 105.789 74.7152 105.789C75.3956 105.789 76.0665 105.947 76.6747 106.249L99.6823 117.549C100.35 117.877 101.091 118.03 101.835 117.995C102.579 117.96 103.302 117.736 103.934 117.346C104.567 116.957 105.089 116.413 105.45 115.767C105.812 115.122 106.001 114.395 106 113.656L105.94 94.3991V39.712C105.935 37.9353 105.221 36.2327 103.955 34.9753C102.689 33.7179 100.973 33.0079 99.1807 33Z" fill="#212121"/>
<circle cx="75" cy="65" r="20" fill="white"/>
<path d="M63 62.1342V61.856C63 58.5035 65.3681 55.644 68.5969 55.0934C70.6922 54.7294 72.9094 55.4421 74.4375 57.0081L75 57.5826L75.5203 57.0081C77.0906 55.4421 79.2656 54.7294 81.4031 55.0934C84.6328 55.644 87 58.5035 87 61.856V62.1342C87 64.1246 86.1938 66.0287 84.7687 67.386L76.2984 75.4772C75.9469 75.8129 75.4828 76 75 76C74.5172 76 74.0531 75.8129 73.7016 75.4772L65.2308 67.386C63.8077 66.0287 63 64.1246 63 62.1342H63Z" fill="#DA2929"/>
<path d="M10.9836 111V112.661" stroke="#D2D8DF" stroke-width="2.40919" stroke-linecap="round"/>
<path d="M6 115.984H7.66121" stroke="#D2D8DF" stroke-width="2.40919" stroke-linecap="round"/>
<path d="M10.9836 120.414V118.753" stroke="#D2D8DF" stroke-width="2.40919" stroke-linecap="round"/>
<path d="M15.4135 115.984H13.7523" stroke="#D2D8DF" stroke-width="2.40919" stroke-linecap="round"/>
<path fill-rule="evenodd" clip-rule="evenodd" d="M144.506 111.254C144.506 112.499 143.497 113.507 142.253 113.507C141.009 113.507 140 112.499 140 111.254C140 110.009 141.009 109 142.253 109C143.497 109 144.506 110.009 144.506 111.254Z" stroke="#D2D8DF" stroke-width="2.921" stroke-linecap="round"/>
<path fill-rule="evenodd" clip-rule="evenodd" d="M116.527 11.2643C116.527 13.0671 115.066 14.5286 113.264 14.5286C111.461 14.5286 110 13.0671 110 11.2643C110 9.46145 111.461 8 113.264 8C115.066 8 116.527 9.46145 116.527 11.2643Z" fill="#EBECEE"/>
<path fill-rule="evenodd" clip-rule="evenodd" d="M42.9051 7.95304C42.9051 9.03208 42.0308 9.90608 40.9525 9.90608C39.8738 9.90608 39 9.03208 39 7.95304C39 6.8745 39.8738 6 40.9525 6C42.0308 6 42.9051 6.8745 42.9051 7.95304Z" fill="#D1D8DF"/>
<path fill-rule="evenodd" clip-rule="evenodd" d="M0 53.2623C1.49515 52.7959 3.78701 50.9674 4.3175 49C4.79859 50.7391 6.81534 52.7959 8.635 52.9515C6.58665 53.6768 4.62819 55.8314 4.3175 57.5241C4.1061 55.7988 1.39735 53.5138 0 53.2623Z" fill="#EBECEE"/>
<path d="M146.491 44V45.1636" stroke="#D2D8DF" stroke-width="1.69948" stroke-linecap="round"/>
<path d="M143 47.4902H144.164" stroke="#D2D8DF" stroke-width="1.69948" stroke-linecap="round"/>
<path d="M146.491 50.982V49.8184" stroke="#D2D8DF" stroke-width="1.69948" stroke-linecap="round"/>
<path d="M149.4 47.4902H148.236" stroke="#D2D8DF" stroke-width="1.69948" stroke-linecap="round"/>
</g>
<defs>
<linearGradient id="paint0_linear_805_5679" x1="74.5375" y1="-5.03747" x2="75.7666" y2="205.673" gradientUnits="userSpaceOnUse">
<stop stop-color="#F2F2F2"/>
<stop offset="1" stop-color="#EFEFEF"/>
</linearGradient>
<clipPath id="clip0_805_5679">
<rect width="150" height="150" fill="white"/>
</clipPath>
</defs>
</svg>
