<svg width="20" height="20" viewBox="0 0 20 20" fill="none" xmlns="http://www.w3.org/2000/svg">
<path d="M16.875 5.62622H14.1406C14.5343 5.1291 14.7243 4.50096 14.6723 3.86898C14.6202 3.23701 14.3299 2.64843 13.8602 2.22242C13.3905 1.79641 12.7765 1.56481 12.1425 1.57451C11.5084 1.58421 10.9018 1.83449 10.4453 2.27466C10.2612 2.46105 10.1105 2.67776 10 2.91529C9.88945 2.67776 9.73881 2.46105 9.55469 2.27466C9.09824 1.83449 8.49157 1.58421 7.85753 1.57451C7.22349 1.56481 6.60946 1.79641 6.13976 2.22242C5.67006 2.64843 5.37979 3.23701 5.32773 3.86898C5.27567 4.50096 5.46572 5.1291 5.85938 5.62622H3.125C2.79348 5.62622 2.47554 5.75792 2.24112 5.99234C2.0067 6.22676 1.875 6.5447 1.875 6.87622V9.37622C1.875 9.70774 2.0067 10.0257 2.24112 10.2601C2.47554 10.4945 2.79348 10.6262 3.125 10.6262V15.6262C3.125 15.9577 3.2567 16.2757 3.49112 16.5101C3.72554 16.7445 4.04348 16.8762 4.375 16.8762H15.625C15.9565 16.8762 16.2745 16.7445 16.5089 16.5101C16.7433 16.2757 16.875 15.9577 16.875 15.6262V10.6262C17.2065 10.6262 17.5245 10.4945 17.7589 10.2601C17.9933 10.0257 18.125 9.70774 18.125 9.37622V6.87622C18.125 6.5447 17.9933 6.22676 17.7589 5.99234C17.5245 5.75792 17.2065 5.62622 16.875 5.62622ZM11.3281 3.15747C11.4418 3.03199 11.5798 2.93092 11.7338 2.86038C11.8877 2.78985 12.0544 2.75133 12.2237 2.74717C12.3929 2.743 12.5613 2.77327 12.7185 2.83614C12.8758 2.89901 13.0186 2.99317 13.1383 3.1129C13.2581 3.23264 13.3522 3.37546 13.4151 3.53268C13.478 3.68991 13.5082 3.85827 13.5041 4.02756C13.4999 4.19684 13.4614 4.3635 13.3908 4.51745C13.3203 4.67139 13.2192 4.8094 13.0938 4.9231C12.7109 5.31372 11.5938 5.52466 10.6484 5.60279C10.7266 4.65747 10.9375 3.54029 11.3281 3.15747ZM6.90625 3.15747C7.14158 2.9256 7.45869 2.79562 7.78906 2.79562C8.11944 2.79562 8.43655 2.9256 8.67188 3.15747C9.0625 3.54029 9.27344 4.65747 9.35156 5.60279C8.40625 5.52466 7.28906 5.31372 6.90625 4.9231C6.67437 4.68777 6.54439 4.37066 6.54439 4.04029C6.54439 3.70991 6.67437 3.3928 6.90625 3.15747ZM16.875 9.37622H10.625V15.0012C10.625 15.167 10.5592 15.326 10.4419 15.4432C10.3247 15.5604 10.1658 15.6262 10 15.6262C9.83424 15.6262 9.67527 15.5604 9.55806 15.4432C9.44085 15.326 9.375 15.167 9.375 15.0012V9.37622H3.125V6.87622H9.375V9.37622H10.625V6.87622H16.875V9.37622Z" fill="black"/>
</svg>
