<svg width="20" height="16" viewBox="0 0 20 16" fill="none" xmlns="http://www.w3.org/2000/svg">
<path d="M3.5 0C2.67156 0 2 0.671562 2 1.5V3H0.5C0.223844 3 0 3.225 0 3.5C0 3.775 0.223844 4 0.5 4H8.5C8.775 4 9 4.225 9 4.5C9 4.775 8.775 5 8.5 5H1.5C1.22375 5 1 5.225 1 5.5C1 5.775 1.22375 6 1.5 6H7.5C7.775 6 8 6.225 8 6.5C8 6.775 7.775 7 7.5 7H0.5C0.223844 7 0 7.225 0 7.5C0 7.775 0.223844 8 0.5 8H6.5C6.775 8 7 8.225 7 8.5C7 8.775 6.775 9 6.5 9H2V13C2 14.6562 3.31562 16 5 16C6.65625 16 8 14.6562 8 13H12C12 14.6562 13.3156 16 15 16C16.6562 16 18 14.6562 18 13H19C19.5531 13 20 12.5531 20 12C20 11.4469 19.5531 11 19 11V7.41563C19 6.88438 18.7906 6.375 18.4156 6L16 3.58437C15.5969 3.20937 15.1156 3 14.5844 3H13V1.5C13 0.671562 12.3281 0 11.5 0H3.5ZM17 7.41563V8H13V5H14.5844L17 7.41563ZM5 14.5C4.17188 14.5 3.5 13.8281 3.5 13C3.5 12.1719 4.17188 11.5 5 11.5C5.82812 11.5 6.5 12.1719 6.5 13C6.5 13.8281 5.82812 14.5 5 14.5ZM16.5 13C16.5 13.8281 15.8281 14.5 15 14.5C14.1719 14.5 13.5 13.8281 13.5 13C13.5 12.1719 14.1719 11.5 15 11.5C15.8281 11.5 16.5 12.1719 16.5 13Z" fill="#212121"/>
</svg>
