<svg width="24" height="24" viewBox="0 0 24 24" fill="none" xmlns="http://www.w3.org/2000/svg">
<path fill-rule="evenodd" clip-rule="evenodd" d="M6.57221 3.29212C7.23853 3.06502 7.9361 3 8.55296 3C10.0177 3 11.122 3.62533 12.0005 4.25297C12.8859 3.62051 13.9829 2.99999 15.4649 3C16.1237 3 16.7977 3.09209 17.4508 3.30936C21.4402 4.60164 22.7253 8.89691 21.6114 12.4252L21.6067 12.44L21.6016 12.4548C20.9852 14.2143 19.9772 15.8214 18.6548 17.1361L18.6491 17.1417L18.6433 17.1473C16.7965 18.9253 14.7227 20.5314 12.5148 21.8572L11.9935 22.1702L11.4758 21.8514C9.27266 20.4952 7.23794 18.9322 5.36874 17.1397L5.36103 17.1323L5.35348 17.1248C4.04238 15.8126 3.03447 14.2173 2.40889 12.4594L2.40366 12.4447L2.39889 12.4299C1.26354 8.89388 2.55506 4.60375 6.57221 3.29212ZM8.55296 5C8.05963 5 7.59908 5.05434 7.21316 5.18664L7.20573 5.18919L7.19826 5.19162C4.51011 6.0662 3.40905 9.01153 4.29844 11.8038C4.82404 13.2738 5.66728 14.607 6.76086 15.7037C8.37537 17.251 10.122 18.6183 12.0056 19.8229C13.8831 18.6436 15.6551 17.2472 17.2503 15.7122C18.3496 14.6176 19.1916 13.2777 19.7088 11.8084C20.5859 9.00771 19.4776 6.06631 16.8313 5.211L16.8224 5.20812L16.8224 5.20808C16.3987 5.06675 15.9403 5 15.4649 5C14.3741 4.99999 13.62 5.52498 12.6049 6.29612L11.999 6.75645L11.3938 6.29517C10.3949 5.53381 9.62429 5 8.55296 5Z" fill="#9B9B9B"/>
</svg>
