<svg width="24" height="24" viewBox="0 0 24 24" fill="none" xmlns="http://www.w3.org/2000/svg">
<path d="M23.1095 18.4885L21.0068 16.3858V16.3856C21.7709 15.2312 21.9093 13.7717 21.3758 12.4943C20.8424 11.2166 19.707 10.2892 18.3488 10.021C16.9906 9.75291 15.588 10.1796 14.609 11.1584C13.6302 12.1374 13.2035 13.54 13.4716 14.8982C13.7397 16.2564 14.6672 17.3918 15.9448 17.9253C17.2223 18.4587 18.6817 18.3203 19.8361 17.5562L21.9389 19.6589H21.939C22.1493 19.862 22.4511 19.9393 22.7331 19.862C23.0149 19.7846 23.2351 19.5643 23.3126 19.2825C23.3898 19.0005 23.3126 18.6988 23.1095 18.4885L23.1095 18.4885ZM15.0736 14.1065C15.0736 13.4478 15.3353 12.8162 15.8009 12.3503C16.2668 11.8846 16.8984 11.623 17.5572 11.623C18.216 11.623 18.8476 11.8846 19.3134 12.3503C19.7791 12.8162 20.0408 13.4478 20.0408 14.1065C20.0408 14.7653 19.7791 15.3969 19.3134 15.8628C18.8476 16.3285 18.216 16.5901 17.5572 16.5901C16.8984 16.5901 16.2668 16.3285 15.8009 15.8628C15.3353 15.3969 15.0736 14.7653 15.0736 14.1065Z" fill="#212121"/>
<path d="M10.1064 11.623H1.82785C1.532 11.623 1.25871 11.7809 1.11087 12.037C0.963042 12.2931 0.963042 12.6087 1.11087 12.8648C1.25871 13.121 1.53201 13.2788 1.82785 13.2788H10.1064C10.4023 13.2788 10.6756 13.121 10.8234 12.8648C10.9712 12.6087 10.9712 12.2931 10.8234 12.037C10.6756 11.7809 10.4023 11.623 10.1064 11.623Z" fill="#212121"/>
<path d="M10.1064 18.2461H1.82785C1.532 18.2461 1.25871 18.4039 1.11087 18.66C0.963042 18.9161 0.963042 19.2318 1.11087 19.4879C1.25871 19.744 1.53201 19.9018 1.82785 19.9018H10.1064C10.4023 19.9018 10.6756 19.744 10.8234 19.4879C10.9712 19.2318 10.9712 18.9161 10.8234 18.66C10.6756 18.4039 10.4023 18.2461 10.1064 18.2461Z" fill="#212121"/>
<path d="M1.82785 6.65572H19.2129C19.5087 6.65572 19.782 6.49791 19.9299 6.24179C20.0777 5.98567 20.0777 5.67005 19.9299 5.41393C19.782 5.15781 19.5087 5 19.2129 5H1.82785C1.532 5 1.25871 5.15781 1.11087 5.41393C0.963042 5.67005 0.963042 5.98567 1.11087 6.24179C1.25871 6.49791 1.53201 6.65572 1.82785 6.65572Z" fill="#212121"/>
</svg>
