<svg width="24" height="24" viewBox="0 0 24 24" fill="none" xmlns="http://www.w3.org/2000/svg">
<path fill-rule="evenodd" clip-rule="evenodd" d="M8.55284 3C7.93598 3 7.23841 3.06502 6.57209 3.29212C2.55494 4.60375 1.26341 8.89388 2.39877 12.4299L2.40354 12.4447L2.40877 12.4594C3.03435 14.2173 4.04226 15.8126 5.35336 17.1248L5.36091 17.1323L5.36862 17.1397C7.23782 18.9322 9.27254 20.4952 11.4756 21.8514L11.9934 22.1702L12.5147 21.8572C14.7226 20.5314 16.7964 18.9253 18.6432 17.1473L18.649 17.1417L18.6547 17.1361C19.9771 15.8214 20.9851 14.2143 21.6015 12.4548L21.6066 12.44L21.6113 12.4252C22.7251 8.89691 21.4401 4.60164 17.4507 3.30936C16.7976 3.09209 16.1236 3 15.4648 3C13.9828 2.99999 12.8858 3.62051 12.0004 4.25297C11.1219 3.62533 10.0176 3 8.55284 3Z" fill="#212121"/>
</svg>
