<svg width="18" height="18" viewBox="0 0 18 18" fill="none" xmlns="http://www.w3.org/2000/svg">
<path d="M9 0C7.21997 0 5.47991 0.52783 3.99987 1.51674C2.51983 2.50566 1.36628 3.91124 0.685088 5.55574C0.00389956 7.20024 -0.17433 9.00981 0.172936 10.7556C0.520203 12.5014 1.37737 14.105 2.63604 15.3637C3.89471 16.6223 5.49836 17.4795 7.24419 17.8267C8.99002 18.174 10.7996 17.9957 12.4442 17.3146C14.0887 16.6334 15.4943 15.4799 16.4832 13.9999C17.4722 12.5198 18 10.7798 18 8.99982C17.9954 6.61433 17.0457 4.32784 15.3589 2.64104C13.6721 0.954236 11.3855 0.00457431 9 0ZM8.82693 4.15376C9.03231 4.15376 9.23309 4.21467 9.40386 4.32877C9.57464 4.44288 9.70774 4.60506 9.78634 4.79481C9.86494 4.98456 9.8855 5.19336 9.84543 5.39479C9.80536 5.59623 9.70646 5.78126 9.56123 5.92649C9.416 6.07172 9.23096 6.17062 9.02952 6.21069C8.82808 6.25076 8.61928 6.2302 8.42952 6.1516C8.23977 6.073 8.07758 5.9399 7.96348 5.76913C7.84937 5.59836 7.78846 5.39759 7.78846 5.1922C7.78846 4.91679 7.89787 4.65266 8.09262 4.45792C8.28737 4.26317 8.55151 4.15376 8.82693 4.15376ZM9.69231 13.8459H9C8.81639 13.8459 8.6403 13.7729 8.51047 13.6431C8.38063 13.5133 8.30769 13.3372 8.30769 13.1536V8.99982C8.12408 8.99982 7.94799 8.92688 7.81816 8.79705C7.68833 8.66722 7.61539 8.49113 7.61539 8.30753C7.61539 8.12392 7.68833 7.94783 7.81816 7.818C7.94799 7.68817 8.12408 7.61523 8.30769 7.61523H9C9.18361 7.61523 9.3597 7.68817 9.48954 7.818C9.61937 7.94783 9.69231 8.12392 9.69231 8.30753V12.4613C9.87592 12.4613 10.052 12.5342 10.1818 12.6641C10.3117 12.7939 10.3846 12.97 10.3846 13.1536C10.3846 13.3372 10.3117 13.5133 10.1818 13.6431C10.052 13.7729 9.87592 13.8459 9.69231 13.8459Z" fill="#FDA61B"/>
</svg>
