<svg width="20" height="20" viewBox="0 0 20 20" fill="none" xmlns="http://www.w3.org/2000/svg">
<g clip-path="url(#clip0_2747_8444)">
<path d="M0 19.3671L3.91352 18.0019L0.955627 16.6367L0 19.3671Z" fill="#F7B600"/>
<path d="M11.3309 8.16893L5.82467 2.61719L4.91455 5.16553L11.3309 8.16893Z" fill="#FFDD7D"/>
<path d="M4.91471 5.16797L3.91357 8.03485L16.1092 13.7231L16.7008 13.5411L11.3311 8.17137L4.91471 5.16797Z" fill="#F7B600"/>
<path d="M2.95801 10.902L12.0592 15.1341L16.1093 13.7234L3.91363 8.03516L2.95801 10.902Z" fill="#FFDD7D"/>
<path d="M1.95703 13.7673L7.96383 16.5886L12.0594 15.1325L2.95816 10.9004L1.95703 13.7673Z" fill="#F7B600"/>
<path d="M1.9567 13.7695L0.955566 16.6364L3.91346 18.0016L7.9635 16.5909L1.9567 13.7695Z" fill="#FFDD7D"/>
<path d="M13.6064 5.80577C16.6553 8.80917 18.2481 12.1766 17.1559 13.2688C16.0183 14.3609 12.6508 12.8137 9.5564 9.7648C6.5075 6.7614 4.91478 3.39395 6.00693 2.30181C7.14458 1.20966 10.512 2.80238 13.6064 5.80577Z" fill="#493816"/>
<path d="M7.17876 3.84032C6.64453 3.07236 7.21215 2.73847 7.94671 2.87203C7.24554 2.03729 7.6796 1.43629 8.78145 1.67001C9.11534 1.73679 8.64789 2.30441 8.34738 2.30441C9.2489 2.9722 8.74806 3.70676 7.77977 3.53981C8.64789 4.70844 7.17876 4.40794 6.51097 4.47472C6.34402 5.34284 7.3457 6.34452 7.01181 6.34452C6.27724 6.34452 5.07523 3.5732 7.17876 3.84032Z" fill="#42ADE2"/>
<path d="M14.1905 5.44293C13.6896 5.67665 12.2873 3.47296 14.0235 3.43957C13.0218 2.53806 13.1554 2.10399 14.491 2.0706C12.9551 0.534695 15.3925 0.000465244 15.6262 0.801809C15.693 1.03553 14.8917 0.601473 14.6245 1.03553C14.324 1.53637 16.4943 2.83856 14.2573 2.73839C15.092 3.57312 15.1254 3.9738 13.8232 4.10735C13.9901 4.37447 14.5244 5.30937 14.1905 5.44293Z" fill="#FF8736"/>
<path d="M14.7583 10.6514L15.2591 10.2174C15.2591 10.2174 15.7266 10.9185 16.0605 11.1857C16.3276 9.98364 16.2608 9.28246 17.6298 10.0838C16.8618 8.01367 18.1306 8.78162 19.366 9.34924C19.2993 8.81501 19.366 8.88179 19.9003 8.71484C20.3677 10.4845 19.0989 9.95025 18.0972 9.38263C18.6982 10.9853 18.0638 10.8852 16.7951 10.3509C16.7617 11.0187 16.5613 11.7867 16.1607 11.8534C15.6932 11.987 14.7583 10.6514 14.7583 10.6514Z" fill="#ED4C5C"/>
<path d="M11.0187 5.70958C10.4177 6.51092 9.44939 6.94498 8.74822 7.64616C8.01365 8.38072 7.57959 10.3841 7.57959 10.3841C7.57959 10.3841 7.8467 8.28056 8.54788 7.47921C9.18228 6.74465 10.1172 6.21042 10.618 5.37568C11.4861 3.83977 10.6848 1.83641 9.54956 0.667787C9.78329 0.467451 10.1172 0.200336 10.2841 0C11.386 1.36896 12.3209 4.00672 11.0187 5.70958Z" fill="#C28FEF"/>
<path d="M12.0535 7.41181C11.1854 8.04621 10.551 8.98111 9.94998 9.84923C9.41575 10.6172 7.71289 11.5855 7.71289 11.5855C7.71289 11.5855 9.31558 10.4836 9.81642 9.68228C10.4174 8.6806 11.0184 7.64553 11.9533 6.91097C13.8231 5.47523 16.5277 5.60878 18.6312 6.37674C18.4976 6.67724 18.2639 7.31164 18.2639 7.31164C18.2639 7.31164 13.8231 6.10962 12.0535 7.41181Z" fill="#FF8736"/>
<path d="M15.7601 7.24467C15.1924 7.97923 14.9253 8.88074 14.4913 9.71548C14.0906 10.4834 13.5564 11.218 12.7884 11.6187C11.9203 12.0527 10.0171 11.9192 10.0171 11.9192C10.0171 11.9192 11.9203 11.8858 12.7216 11.3516C13.523 10.8173 13.957 9.88242 14.2575 9.0143C14.8585 7.34483 15.5931 5.54181 17.3294 4.80724C17.4295 5.10775 17.6632 5.74215 17.6632 5.74215C17.6632 5.74215 16.695 6.00926 15.7601 7.24467ZM0.404297 3.78052L1.34855 2.83594L2.29313 3.78019L1.34888 4.72511L0.404297 3.78052Z" fill="#42ADE2"/>
<path d="M1.72705 6.74308L2.67097 5.79883L3.61522 6.74308L2.67097 7.68733L1.72705 6.74308Z" fill="#FF8736"/>
<path d="M4.12646 2.27823L5.07072 1.33398L6.01497 2.27823L5.07072 3.22249L4.12646 2.27823Z" fill="#ED4C5C"/>
<path d="M14.4258 13.5872L15.37 12.6426L16.3143 13.5872L15.37 14.5314L14.4258 13.5872Z" fill="#C28FEF"/>
<path d="M12.3218 16.8251L13.266 15.8809L14.2106 16.8254L13.266 17.7697L12.3218 16.8251Z" fill="#ED4C5C"/>
<path d="M16.4541 17.5637L17.3984 16.6191L18.3426 17.5637L17.3984 18.508L16.4541 17.5637Z" fill="#FF8736"/>
<path d="M17.3882 13.2647L18.3324 12.3204L19.2767 13.2647L18.3324 14.2092L17.3882 13.2647ZM15.8115 3.27857L16.7558 2.33398L17.7004 3.27857L16.7561 4.22282L15.8115 3.27857Z" fill="#42ADE2"/>
<path d="M5.69092 8.9462L6.6355 8.00195L7.57975 8.9462L6.6355 9.89079L5.69092 8.9462Z" fill="#ED4C5C"/>
</g>
<defs>
<clipPath id="clip0_2747_8444">
<rect width="20" height="20" fill="white"/>
</clipPath>
</defs>
</svg>
