<svg width="24" height="24" viewBox="0 0 24 24" fill="none" xmlns="http://www.w3.org/2000/svg">
<path d="M19 13H11V5C11 4.46875 10.5312 4 10 4H5C4.4375 4 4 4.46875 4 5V19C4 19.5625 4.4375 20 5 20H19C19.5312 20 20 19.5625 20 19V14C20 13.4688 19.5312 13 19 13ZM5.5 5.5H9.5V7H7.25C7.09375 7 7 7.125 7 7.25V7.75C7 7.90625 7.09375 8 7.25 8H9.5V9.5H7.25C7.09375 9.5 7 9.625 7 9.75V10.25C7 10.4062 7.09375 10.5 7.25 10.5H9.5V12H7.25C7.09375 12 7 12.125 7 12.25V12.75C7 12.9062 7.09375 13 7.25 13H9.5V13.8125L5.5 17.8125V5.5ZM18.5 18.5H6.1875L10.1875 14.5H11V16.75C11 16.9062 11.0938 17 11.25 17H11.75C11.875 17 12 16.9062 12 16.75V14.5H13.5V16.75C13.5 16.9062 13.5938 17 13.75 17H14.25C14.375 17 14.5 16.9062 14.5 16.75V14.5H16V16.75C16 16.9062 16.0938 17 16.25 17H16.75C16.875 17 17 16.9062 17 16.75V14.5H18.5V18.5Z" fill="#333333"/>
</svg>
