<svg width="16" height="16" viewBox="0 0 16 16" fill="none" xmlns="http://www.w3.org/2000/svg">
<path d="M15 9H7V1C7 0.46875 6.53125 0 6 0H1C0.4375 0 0 0.46875 0 1V15C0 15.5625 0.4375 16 1 16H15C15.5312 16 16 15.5625 16 15V10C16 9.46875 15.5312 9 15 9ZM1.5 1.5H5.5V3H3.25C3.09375 3 3 3.125 3 3.25V3.75C3 3.90625 3.09375 4 3.25 4H5.5V5.5H3.25C3.09375 5.5 3 5.625 3 5.75V6.25C3 6.40625 3.09375 6.5 3.25 6.5H5.5V8H3.25C3.09375 8 3 8.125 3 8.25V8.75C3 8.90625 3.09375 9 3.25 9H5.5V9.8125L1.5 13.8125V1.5ZM14.5 14.5H2.1875L6.1875 10.5H7V12.75C7 12.9062 7.09375 13 7.25 13H7.75C7.875 13 8 12.9062 8 12.75V10.5H9.5V12.75C9.5 12.9062 9.59375 13 9.75 13H10.25C10.375 13 10.5 12.9062 10.5 12.75V10.5H12V12.75C12 12.9062 12.0938 13 12.25 13H12.75C12.875 13 13 12.9062 13 12.75V10.5H14.5V14.5Z" fill="#333333"/>
</svg>
