<svg width="24" height="24" viewBox="0 0 24 24" fill="none" xmlns="http://www.w3.org/2000/svg">
<path d="M13.75 7.93753C13.75 7.53128 13.4062 7.18753 13 7.18753C12.5625 7.18753 12.25 7.53128 12.25 7.93753C12.25 8.37503 12.5625 8.68753 13 8.68753C13.4062 8.68753 13.75 8.37503 13.75 7.93753ZM13 15C13.1562 15 13.3125 14.9375 13.4062 14.8125C14.5 13.5625 17.375 10.125 17.375 8.25003C17.375 5.90628 15.4062 4.00003 13 4.00003C10.5625 4.00003 8.59375 5.90628 8.59375 8.25003C8.59375 10.125 11.4688 13.5625 12.5625 14.8125C12.6875 14.9375 12.8438 15 13 15ZM13 5.50003C14.5938 5.50003 15.875 6.75003 15.875 8.25003C15.875 8.90628 14.9062 10.7188 13 13C11.0938 10.7188 10.0938 8.90628 10.0938 8.25003C10.0938 6.75003 11.375 5.50003 13 5.50003ZM20.5 9.00003C20.4375 9.00003 20.375 9.03128 20.3125 9.06253L18 9.90628C17.75 10.5313 17.375 11.2188 16.9375 11.9063L19.5 10.9375V16.9688L15.5 18.375V13.9063C15.0625 14.4375 14.625 14.9688 14.1562 15.5C14.0938 15.5313 14.0312 15.5938 14 15.6563V18.1875L10 16.7813V13.25C9.40625 12.5 8.90625 11.7188 8.5 10.9688V16.5938H8.46875L4.5 18.0625V12.0313L8.34375 10.6875C8.09375 10.2188 7.90625 9.75003 7.78125 9.31253L3.625 10.75C3.25 10.9063 3 11.2813 3 11.6875V19.5C3 19.8125 3.21875 20 3.5 20C3.5625 20 3.625 20 3.6875 19.9688L9 18L14.375 19.9063C14.7812 20.0313 15.2188 20.0625 15.625 19.9063L20.3438 18.25C20.75 18.125 21 17.75 21 17.3438V9.50003C21 9.21878 20.75 9.00003 20.5 9.00003Z" fill="#333333"/>
</svg>
