<svg width="20" height="16" viewBox="0 0 20 16" fill="none" xmlns="http://www.w3.org/2000/svg">
<path d="M19.5 11.5H19V7.875C19 7.28125 18.75 6.71875 18.3125 6.28125L15.7188 3.6875C15.2812 3.25 14.7188 3 14.125 3H13V1.75C13 0.8125 12.1875 0 11.25 0H3.75C2.78125 0 2 0.8125 2 1.75V3H0.25C0.09375 3 0 3.125 0 3.25V3.75C0 3.90625 0.09375 4 0.25 4H7.75C7.875 4 8 3.90625 8 3.75V3.25C8 3.125 7.875 3 7.75 3H3.5V1.75C3.5 1.625 3.59375 1.5 3.75 1.5H11.25C11.375 1.5 11.5 1.625 11.5 1.75V11.5H7.5625C7.0625 10.625 6.09375 10 5 10C4.4375 10 3.9375 10.1875 3.5 10.4375V9H2V13C2 14.6562 3.34375 16 5 16C6.65625 16 8 14.6562 8 13H12C12 14.6562 13.3438 16 15 16C16.6562 16 18 14.6562 18 13H19.5C19.75 13 20 12.7812 20 12.5V12C20 11.75 19.75 11.5 19.5 11.5ZM5 14.5C4.15625 14.5 3.5 13.8438 3.5 13C3.5 12.1875 4.15625 11.5 5 11.5C5.8125 11.5 6.5 12.1875 6.5 13C6.5 13.8438 5.8125 14.5 5 14.5ZM13 4.5H14.125C14.3125 4.5 14.5 4.59375 14.6562 4.71875L16.9375 7H13V4.5ZM15 14.5C14.1562 14.5 13.5 13.8438 13.5 13C13.5 12.1875 14.1562 11.5 15 11.5C15.8125 11.5 16.5 12.1875 16.5 13C16.5 13.8438 15.8125 14.5 15 14.5ZM17.5 11.375C16.9375 10.5625 16.0312 10 15 10C14.2188 10 13.5312 10.3125 13 10.7812V8.5H17.5V11.375ZM8 7.75V7.25C8 7.125 7.875 7 7.75 7H0.25C0.09375 7 0 7.125 0 7.25V7.75C0 7.90625 0.09375 8 0.25 8H7.75C7.875 8 8 7.90625 8 7.75ZM8.75 6C8.875 6 9 5.90625 9 5.75V5.25C9 5.125 8.875 5 8.75 5H1.25C1.09375 5 1 5.125 1 5.25V5.75C1 5.90625 1.09375 6 1.25 6H8.75Z" fill="#212121"/>
</svg>
