<svg width="150" height="150" viewBox="0 0 150 150" fill="none" xmlns="http://www.w3.org/2000/svg">
<g clip-path="url(#clip0_805_5568)">
<rect width="150" height="150" fill="white"/>
<path d="M75 134.5C108.137 134.5 135 107.637 135 74.5C135 41.3629 108.137 14.5 75 14.5C41.8629 14.5 15 41.3629 15 74.5C15 107.637 41.8629 134.5 75 134.5Z" fill="url(#paint0_linear_805_5568)"/>
<path d="M10.9837 111V112.661" stroke="#D2D8DF" stroke-width="2.40919" stroke-linecap="round"/>
<path d="M6.00003 115.984H7.66124" stroke="#D2D8DF" stroke-width="2.40919" stroke-linecap="round"/>
<path d="M10.9837 120.414V118.753" stroke="#D2D8DF" stroke-width="2.40919" stroke-linecap="round"/>
<path d="M15.4135 115.984H13.7523" stroke="#D2D8DF" stroke-width="2.40919" stroke-linecap="round"/>
<path fill-rule="evenodd" clip-rule="evenodd" d="M144.506 111.254C144.506 112.499 143.497 113.507 142.253 113.507C141.009 113.507 140 112.499 140 111.254C140 110.009 141.009 109 142.253 109C143.497 109 144.506 110.009 144.506 111.254Z" stroke="#D2D8DF" stroke-width="2.921" stroke-linecap="round"/>
<path fill-rule="evenodd" clip-rule="evenodd" d="M116.527 11.2643C116.527 13.0671 115.066 14.5286 113.264 14.5286C111.461 14.5286 110 13.0671 110 11.2643C110 9.46145 111.461 8 113.264 8C115.066 8 116.527 9.46145 116.527 11.2643" fill="#EBECEE"/>
<path fill-rule="evenodd" clip-rule="evenodd" d="M42.9051 7.95304C42.9051 9.03208 42.0308 9.90608 40.9525 9.90608C39.8738 9.90608 39 9.03208 39 7.95304C39 6.8745 39.8738 6 40.9525 6C42.0308 6 42.9051 6.8745 42.9051 7.95304" fill="#D1D8DF"/>
<path fill-rule="evenodd" clip-rule="evenodd" d="M0 53.2623C1.49515 52.7959 3.78701 50.9674 4.3175 49C4.79859 50.7391 6.81534 52.7959 8.635 52.9515C6.58665 53.6768 4.62819 55.8314 4.3175 57.5241C4.1061 55.7988 1.39735 53.5138 0 53.2623" fill="#EBECEE"/>
<path d="M146.491 44V45.1636" stroke="#D2D8DF" stroke-width="1.69948" stroke-linecap="round"/>
<path d="M143 47.4902H144.164" stroke="#D2D8DF" stroke-width="1.69948" stroke-linecap="round"/>
<path d="M146.491 50.982V49.8184" stroke="#D2D8DF" stroke-width="1.69948" stroke-linecap="round"/>
<path d="M149.4 47.4902H148.236" stroke="#D2D8DF" stroke-width="1.69948" stroke-linecap="round"/>
<path d="M56.25 46.2812C56.25 36.7364 63.9663 29 73.5 29C83.0337 29 90.75 36.7364 90.75 46.2812V53.6875H100.607C104.689 53.6875 108 57.0049 108 61.0938V93.1875C108 101.365 101.377 108 93.2143 108H53.7857C45.6197 108 39 101.365 39 93.1875V61.0938C39 57.0049 42.3098 53.6875 46.3929 53.6875H56.25V46.2812ZM63.6429 53.6875H83.3571V46.2812C83.3571 40.8269 78.9368 36.4062 73.5 36.4062C68.0632 36.4062 63.6429 40.8269 63.6429 46.2812V53.6875ZM59.9464 68.5C61.9949 68.5 63.6429 66.849 63.6429 64.7969C63.6429 62.7447 61.9949 61.0938 59.9464 61.0938C57.898 61.0938 56.25 62.7447 56.25 64.7969C56.25 66.849 57.898 68.5 59.9464 68.5ZM87.0536 61.0938C85.0051 61.0938 83.3571 62.7447 83.3571 64.7969C83.3571 66.849 85.0051 68.5 87.0536 68.5C89.102 68.5 90.75 66.849 90.75 64.7969C90.75 62.7447 89.102 61.0938 87.0536 61.0938Z" fill="black"/>
<circle cx="107" cy="95" r="14" fill="#DA2929"/>
<g clip-path="url(#clip1_805_5568)">
<path d="M107.305 102.642C108.645 102.642 109.58 101.728 109.58 100.453C109.58 99.1556 108.645 98.2414 107.305 98.2414C105.987 98.2414 105.03 99.1556 105.03 100.453C105.03 101.728 105.987 102.642 107.305 102.642ZM109.389 87.0371H105.222V91.2042L106.285 96.9658H108.305L109.389 91.2042V87.0371Z" fill="white"/>
</g>
</g>
<defs>
<linearGradient id="paint0_linear_805_5568" x1="74.5375" y1="-5.03747" x2="75.7666" y2="205.673" gradientUnits="userSpaceOnUse">
<stop stop-color="#F2F2F2"/>
<stop offset="1" stop-color="#EFEFEF"/>
</linearGradient>
<clipPath id="clip0_805_5568">
<rect width="150" height="150" fill="white"/>
</clipPath>
<clipPath id="clip1_805_5568">
<rect width="4.95238" height="16" fill="white" transform="translate(105 87)"/>
</clipPath>
</defs>
</svg>
