<svg width="150" height="150" viewBox="0 0 150 150" fill="none" xmlns="http://www.w3.org/2000/svg">
<g clip-path="url(#clip0_756_6255)">
<rect width="150" height="150" fill="white"/>
<path d="M75 134.5C108.137 134.5 135 107.637 135 74.5C135 41.3629 108.137 14.5 75 14.5C41.8629 14.5 15 41.3629 15 74.5C15 107.637 41.8629 134.5 75 134.5Z" fill="url(#paint0_linear_756_6255)"/>
<path d="M23.9836 126V127.661" stroke="#D2D8DF" stroke-width="2.40919" stroke-linecap="round"/>
<path d="M19 130.984H20.6612" stroke="#D2D8DF" stroke-width="2.40919" stroke-linecap="round"/>
<path d="M23.9836 135.415V133.754" stroke="#D2D8DF" stroke-width="2.40919" stroke-linecap="round"/>
<path d="M28.4135 130.984H26.7523" stroke="#D2D8DF" stroke-width="2.40919" stroke-linecap="round"/>
<path fill-rule="evenodd" clip-rule="evenodd" d="M144.506 111.254C144.506 112.499 143.497 113.507 142.253 113.507C141.009 113.507 140 112.499 140 111.254C140 110.009 141.009 109 142.253 109C143.497 109 144.506 110.009 144.506 111.254Z" stroke="#D2D8DF" stroke-width="2.921" stroke-linecap="round"/>
<path fill-rule="evenodd" clip-rule="evenodd" d="M116.527 11.2643C116.527 13.0671 115.066 14.5286 113.264 14.5286C111.461 14.5286 110 13.0671 110 11.2643C110 9.46145 111.461 8 113.264 8C115.066 8 116.527 9.46145 116.527 11.2643Z" fill="#EBECEE"/>
<path fill-rule="evenodd" clip-rule="evenodd" d="M27.9051 12.953C27.9051 14.0321 27.0308 14.9061 25.9525 14.9061C24.8738 14.9061 24 14.0321 24 12.953C24 11.8745 24.8738 11 25.9525 11C27.0308 11 27.9051 11.8745 27.9051 12.953Z" fill="#D1D8DF"/>
<path fill-rule="evenodd" clip-rule="evenodd" d="M3 56.2623C4.49515 55.7959 6.78701 53.9674 7.3175 52C7.79859 53.7391 9.81534 55.7959 11.635 55.9515C9.58665 56.6768 7.62819 58.8314 7.3175 60.5241C7.1061 58.7988 4.39735 56.5138 3 56.2623Z" fill="#EBECEE"/>
<path d="M146.491 44V45.1636" stroke="#D2D8DF" stroke-width="1.69948" stroke-linecap="round"/>
<path d="M143 47.4902H144.164" stroke="#D2D8DF" stroke-width="1.69948" stroke-linecap="round"/>
<path d="M146.491 50.982V49.8184" stroke="#D2D8DF" stroke-width="1.69948" stroke-linecap="round"/>
<path d="M149.4 47.4902H148.236" stroke="#D2D8DF" stroke-width="1.69948" stroke-linecap="round"/>
<path d="M65.8721 37.6643C70.6025 32.8992 78.3249 32.8992 83.0958 37.628L86.0473 40.5743C87.1794 41.706 88.7158 42.3567 90.333 42.3567H94.4975C101.209 42.3567 106.667 47.8089 106.667 54.5181V58.685C106.667 60.2977 107.314 61.8335 108.446 62.9652L111.357 65.8752C113.662 68.1385 114.915 71.2102 114.915 74.4435C114.956 77.6768 113.702 80.7525 111.438 83.0523L108.446 86.0431C107.314 87.1748 106.667 88.7106 106.667 90.3313V94.4902C106.667 101.199 101.209 106.66 94.4975 106.66H90.333C88.7158 106.66 87.1794 107.302 86.0473 108.434L83.1363 111.344C80.7508 113.733 77.6376 114.901 74.5244 114.901C71.4112 114.901 68.298 113.733 65.9125 111.388L62.961 108.434C61.8289 107.302 60.2926 106.66 58.6753 106.66H54.5109C47.7993 106.66 42.341 101.199 42.341 94.4902V90.3313C42.341 88.7106 41.6941 87.1748 40.5621 86.0027L37.651 83.1331C32.9205 78.4084 32.8801 70.6848 37.6106 65.9196L40.5621 62.9652C41.6941 61.8335 42.341 60.2977 42.341 58.6406V54.5181C42.341 47.8089 47.7993 42.3567 54.5109 42.3567H58.6753C60.2926 42.3567 61.8289 41.706 62.961 40.5743L65.8721 37.6643ZM84.9152 81.3548C82.9341 81.3548 81.3573 82.935 81.3573 84.871C81.3573 86.8514 82.9341 88.4277 84.9152 88.4277C86.8559 88.4277 88.4328 86.8514 88.4328 84.871C88.4328 82.935 86.8559 81.3548 84.9152 81.3548ZM87.3815 61.591C86.0069 60.2209 83.7832 60.2209 82.4085 61.591L61.6268 82.3652C60.2521 83.7393 60.2521 86.0027 61.6268 87.3768C62.2737 88.0639 63.1632 88.4277 64.0931 88.4277C65.0635 88.4277 65.9529 88.0639 66.5998 87.3768L87.3815 66.6067C88.7562 65.2325 88.7562 62.9652 87.3815 61.591ZM64.1335 60.5806C62.1928 60.5806 60.5756 62.1568 60.5756 64.0968C60.5756 66.0813 62.1928 67.6535 64.1335 67.6535C66.0742 67.6535 67.6511 66.0813 67.6511 64.0968C67.6511 62.1568 66.0742 60.5806 64.1335 60.5806Z" fill="black"/>
<circle cx="107" cy="98" r="14" fill="#DA2929"/>
<g clip-path="url(#clip1_756_6255)">
<path d="M107.305 105.642C108.645 105.642 109.58 104.728 109.58 103.453C109.58 102.156 108.645 101.241 107.305 101.241C105.987 101.241 105.03 102.156 105.03 103.453C105.03 104.728 105.987 105.642 107.305 105.642ZM109.389 90.0371H105.222V94.2042L106.285 99.9658H108.304L109.389 94.2042V90.0371Z" fill="white"/>
</g>
</g>
<defs>
<linearGradient id="paint0_linear_756_6255" x1="74.5375" y1="-5.03747" x2="75.7666" y2="205.673" gradientUnits="userSpaceOnUse">
<stop stop-color="#F2F2F2"/>
<stop offset="1" stop-color="#EFEFEF"/>
</linearGradient>
<clipPath id="clip0_756_6255">
<rect width="150" height="150" fill="white"/>
</clipPath>
<clipPath id="clip1_756_6255">
<rect width="4.95238" height="16" fill="white" transform="translate(105 90)"/>
</clipPath>
</defs>
</svg>
