<svg width="24" height="24" viewBox="0 0 24 24" fill="none" xmlns="http://www.w3.org/2000/svg">
<path d="M12 7.25C10.3438 7.25 9 8.59375 9 10.25C9 11.9062 10.3438 13.25 12 13.25C13.6562 13.25 15 11.9062 15 10.25C15 8.59375 13.6562 7.25 12 7.25ZM12 11.75C11.1562 11.75 10.5 11.0938 10.5 10.25C10.5 9.4375 11.1562 8.75 12 8.75C12.8125 8.75 13.5 9.4375 13.5 10.25C13.5 11.0938 12.8125 11.75 12 11.75ZM12 4.25C7.71875 4.25 4.25 7.71875 4.25 12C4.25 16.2812 7.71875 19.75 12 19.75C16.2812 19.75 19.75 16.2812 19.75 12C19.75 7.71875 16.2812 4.25 12 4.25ZM12 18.25C10.4375 18.25 9 17.6875 7.90625 16.75C8.375 16.0312 9.1875 15.5312 10.0938 15.5312C10.75 15.7188 11.375 15.8125 12 15.8125C12.5938 15.8125 13.2188 15.7188 13.875 15.5312C14.7812 15.5625 15.5938 16.0312 16.0625 16.75C14.9688 17.6875 13.5312 18.25 12 18.25ZM17.0625 15.625C16.3125 14.6562 15.125 14 13.7812 14C13.4688 14 12.9688 14.3125 12 14.3125C11 14.3125 10.5 14 10.1875 14C8.84375 14 7.65625 14.6562 6.90625 15.625C6.15625 14.625 5.75 13.375 5.75 12C5.75 8.5625 8.53125 5.75 12 5.75C15.4375 5.75 18.25 8.5625 18.25 12C18.25 13.375 17.8125 14.625 17.0625 15.625Z" fill="#212121"/>
</svg>
