<svg width="16" height="16" viewBox="0 0 16 16" fill="none" xmlns="http://www.w3.org/2000/svg">
<path d="M14.5139 2.63549L11.6471 3.79849L4.58824 0.936303L6.30588 0.238883C7.09131 -0.0796276 7.96751 -0.0796276 8.75294 0.238883L14.1713 2.43609C14.2941 2.48565 14.4094 2.55246 14.5139 2.63453V2.63549ZM7.53035 5.4681L10.3802 4.31178L3.32141 1.44959L0.887529 2.43704C0.764727 2.4866 0.649403 2.5534 0.544941 2.63549L7.52941 5.4681H7.53035ZM1.97041e-08 3.7651C1.97041e-08 3.66015 0.0112942 3.55616 0.0329413 3.45598L7.05882 6.30481V9.51714C6.74782 10.2037 6.58727 10.9503 6.58824 11.7058C6.58824 12.4881 6.75765 13.2294 7.05882 13.8953V14.7902C6.80072 14.7528 6.54796 14.6843 6.30588 14.5861L0.887529 12.3889C0.625499 12.2826 0.400889 12.0992 0.242687 11.8624C0.0844852 11.6255 -4.7119e-05 11.3459 1.97041e-08 11.0599V3.7651ZM15.0588 3.7651V7.65767C14.1322 6.88105 12.967 6.45717 11.7647 6.45937C11.0596 6.4584 10.3619 6.60384 9.71438 6.88672C9.0669 7.16961 8.48345 7.58394 8 8.10418V6.30481L15.0259 3.45598C15.0475 3.55616 15.0588 3.66015 15.0588 3.7651ZM11.7647 16C12.888 16 13.9652 15.5477 14.7595 14.7425C15.5538 13.9374 16 12.8454 16 11.7067C16 10.5681 15.5538 9.47606 14.7595 8.67091C13.9652 7.86576 12.888 7.41343 11.7647 7.41343C10.6414 7.41343 9.56417 7.86576 8.7699 8.67091C7.97563 9.47606 7.52941 10.5681 7.52941 11.7067C7.52941 12.8454 7.97563 13.9374 8.7699 14.7425C9.56417 15.5477 10.6414 16 11.7647 16ZM10.8235 12.4633L13.3139 9.93884C13.4021 9.84927 13.5218 9.79889 13.6467 9.7988C13.7086 9.79876 13.7698 9.81106 13.8269 9.83501C13.8841 9.85895 13.936 9.89407 13.9798 9.93836C14.0235 9.98265 14.0582 10.0352 14.0819 10.0931C14.1056 10.151 14.1179 10.2131 14.1179 10.2758C14.118 10.3384 14.1058 10.4005 14.0822 10.4584C14.0586 10.5164 14.0239 10.569 13.9802 10.6134L11.1567 13.4756C11.113 13.52 11.0611 13.5552 11.0039 13.5793C10.9467 13.6033 10.8854 13.6157 10.8235 13.6157C10.7616 13.6157 10.7003 13.6033 10.6432 13.5793C10.586 13.5552 10.5341 13.52 10.4904 13.4756L9.54918 12.5215C9.46094 12.4319 9.41141 12.3105 9.4115 12.1839C9.41159 12.0573 9.46128 11.9359 9.54965 11.8465C9.63801 11.757 9.75781 11.7068 9.88269 11.7069C10.0076 11.707 10.1273 11.7574 10.2155 11.847L10.8235 12.4633Z" fill="black"/>
</svg>
