<svg width="16" height="16" viewBox="0 0 16 16" fill="none" xmlns="http://www.w3.org/2000/svg">
<path d="M14.5139 2.63549L11.6471 3.79849L4.58824 0.936303L6.30589 0.238883C7.09132 -0.0796276 7.96752 -0.0796276 8.75295 0.238883L14.1713 2.43609C14.2941 2.48565 14.4094 2.55341 14.5139 2.63549ZM7.53036 5.4681L10.3802 4.31178L3.32142 1.44959L0.887542 2.43704C0.764739 2.4866 0.649415 2.5534 0.544953 2.63549L7.53036 5.4681ZM0.0320127 3.45598C0.0103068 3.55754 -0.000423101 3.66119 1.27621e-05 3.7651V11.0599C-3.43766e-05 11.3459 0.0844978 11.6255 0.2427 11.8624C0.400901 12.0992 0.625511 12.2826 0.887542 12.3889L6.30589 14.5861C6.5506 14.6853 6.80283 14.753 7.05883 14.7902V13.8963C6.7477 13.2095 6.58715 12.4625 6.58824 11.7067C6.58824 10.9244 6.75765 10.184 7.05883 9.51714V6.30481L0.0320127 3.45598ZM15.0588 3.7651V7.65863C14.1324 6.88166 12.9671 6.45744 11.7647 6.45937C11.0596 6.45852 10.3618 6.60411 9.71428 6.88716C9.06679 7.17021 8.48337 7.58472 8.00001 8.10513V6.30481L15.0259 3.45598C15.0475 3.55616 15.0588 3.66015 15.0588 3.7651ZM16 11.7067C16 12.8454 15.5538 13.9374 14.7595 14.7425C13.9652 15.5477 12.888 16 11.7647 16C10.6414 16 9.56418 15.5477 8.76991 14.7425C7.97564 13.9374 7.52942 12.8454 7.52942 11.7067C7.52942 10.5681 7.97564 9.47606 8.76991 8.67091C9.56418 7.86576 10.6414 7.41344 11.7647 7.41344C12.888 7.41344 13.9652 7.86576 14.7595 8.67091C15.5538 9.47606 16 10.5681 16 11.7067ZM13.5096 10.6134C13.598 10.5238 13.6477 10.4023 13.6477 10.2756C13.6477 10.1489 13.598 10.0275 13.5096 9.93789C13.4213 9.84831 13.3014 9.79799 13.1765 9.79799C13.0515 9.79799 12.9317 9.84831 12.8433 9.93789L11.7647 11.0322L10.6861 9.93789C10.5978 9.84831 10.4779 9.79799 10.3529 9.79799C10.228 9.79799 10.1081 9.84831 10.0198 9.93789C9.93141 10.0275 9.88176 10.1489 9.88176 10.2756C9.88176 10.4023 9.93141 10.5238 10.0198 10.6134L11.0993 11.7067L10.0198 12.8001C9.97602 12.8444 9.94131 12.8971 9.91763 12.955C9.89395 13.013 9.88176 13.0751 9.88176 13.1378C9.88176 13.2005 9.89395 13.2626 9.91763 13.3206C9.94131 13.3785 9.97602 13.4312 10.0198 13.4756C10.0635 13.5199 10.1155 13.5551 10.1726 13.5791C10.2298 13.6031 10.2911 13.6154 10.3529 13.6154C10.4148 13.6154 10.4761 13.6031 10.5333 13.5791C10.5904 13.5551 10.6424 13.5199 10.6861 13.4756L11.7647 12.3812L12.8433 13.4756C12.8871 13.5199 12.939 13.5551 12.9962 13.5791C13.0533 13.6031 13.1146 13.6154 13.1765 13.6154C13.2383 13.6154 13.2996 13.6031 13.3568 13.5791C13.414 13.5551 13.4659 13.5199 13.5096 13.4756C13.5534 13.4312 13.5881 13.3785 13.6118 13.3206C13.6355 13.2626 13.6477 13.2005 13.6477 13.1378C13.6477 13.0751 13.6355 13.013 13.6118 12.955C13.5881 12.8971 13.5534 12.8444 13.5096 12.8001L12.4301 11.7067L13.5096 10.6134Z" fill="black"/>
</svg>
